<?xml version="1.0" encoding="UTF-8"?>
<svg id="Layer_2" xmlns="http://www.w3.org/2000/svg" viewBox="0 0 1584.93 1023.38">
  <defs>
    <style>
      .cls-1 {
        letter-spacing: 0em;
      }

      .cls-1, .cls-2, .cls-3, .cls-4, .cls-5, .cls-6, .cls-7, .cls-8, .cls-9, .cls-10 {
        font-family: AeonikTRIAL-Bold, 'Aeonik TRIAL';
        font-weight: 700;
      }

      .cls-2 {
        letter-spacing: -.02em;
      }

      .cls-3 {
        letter-spacing: -.02em;
      }

      .cls-4 {
        letter-spacing: -.02em;
      }

      .cls-11 {
        font-size: 48px;
      }

      .cls-11, .cls-12, .cls-13, .cls-14 {
        fill: #fff;
      }

      .cls-5 {
        letter-spacing: -.02em;
      }

      .cls-15 {
        font-family: MyriadPro-Regular, 'Myriad Pro';
      }

      .cls-16 {
        letter-spacing: 0em;
      }

      .cls-17 {
        opacity: .4;
      }

      .cls-17, .cls-18, .cls-19 {
        fill: #df0;
      }

      .cls-18 {
        opacity: .35;
      }

      .cls-19 {
        opacity: .13;
      }

      .cls-20 {
        opacity: .76;
      }

      .cls-12 {
        font-size: 62.02px;
      }

      .cls-12, .cls-13, .cls-14 {
        font-family: AeonikTRIAL-Regular, 'Aeonik TRIAL';
      }

      .cls-21 {
        letter-spacing: -.03em;
      }

      .cls-22 {
        letter-spacing: -.02em;
      }

      .cls-23 {
        letter-spacing: -.02em;
      }

      .cls-24 {
        letter-spacing: -.02em;
      }

      .cls-25 {
        letter-spacing: -.02em;
      }

      .cls-26 {
        letter-spacing: -.03em;
      }

      .cls-27 {
        letter-spacing: -.03em;
      }

      .cls-7 {
        letter-spacing: 0em;
      }

      .cls-28 {
        letter-spacing: 0em;
      }

      .cls-29 {
        letter-spacing: 0em;
      }

      .cls-30 {
        letter-spacing: 0em;
      }

      .cls-31 {
        letter-spacing: 0em;
      }

      .cls-32 {
        letter-spacing: 0em;
      }

      .cls-13 {
        font-size: 31.01px;
      }

      .cls-33 {
        letter-spacing: -.01em;
      }

      .cls-34 {
        letter-spacing: 0em;
      }

      .cls-35 {
        letter-spacing: 0em;
      }

      .cls-14 {
        font-size: 38px;
      }

      .cls-36 {
        letter-spacing: 0em;
      }

      .cls-8 {
        letter-spacing: 0em;
      }

      .cls-37 {
        fill: none;
        stroke: #df0;
        stroke-miterlimit: 10;
        stroke-width: 2px;
      }

      .cls-38 {
        letter-spacing: 0em;
      }

      .cls-39 {
        letter-spacing: 0em;
      }

      .cls-40 {
        letter-spacing: 0em;
      }

      .cls-9 {
        letter-spacing: 0em;
      }

      .cls-10 {
        letter-spacing: 0em;
      }
    </style>
  </defs>
  <g id="Layer_1-2" data-name="Layer_1">
    <rect class="cls-17" x="1277" y="1.55" width="150" height="45"/>
    <rect class="cls-17" y="2.38" width="192" height="45"/>
    <text class="cls-11" transform="translate(6.53 40.8)"><tspan class="cls-6" x="0" y="0">Only 3</tspan><tspan class="cls-15" x="142.46" y="0">%</tspan><tspan class="cls-6" x="180.48" y="0"> </tspan><tspan class="cls-10" x="192.38" y="0">o</tspan><tspan class="cls-6" x="221.09" y="0">f t</tspan><tspan class="cls-9" x="267.74" y="0">h</tspan><tspan class="cls-6" x="295.96" y="0">e 426 Figu</tspan><tspan class="cls-2" x="528.04" y="0">r</tspan><tspan class="cls-1" x="545.27" y="0">e</tspan><tspan class="cls-6" x="572.97" y="0">s Ho</tspan><tspan class="cls-10" x="672.57" y="0">n</tspan><tspan class="cls-7" x="700.79" y="0">o</tspan><tspan class="cls-4" x="729.59" y="0">r</tspan><tspan class="cls-6" x="746.82" y="0">ed on Me</tspan><tspan class="cls-3" x="955.72" y="0">r</tspan><tspan class="cls-6" x="972.95" y="0">cu</tspan><tspan class="cls-8" x="1028.19" y="0">r</tspan><tspan class="cls-6" x="1046.63" y="0">y A</tspan><tspan class="cls-4" x="1118.24" y="0">r</tspan><tspan class="cls-6" x="1135.47" y="0">e f</tspan><tspan class="cls-3" x="1192.54" y="0">r</tspan><tspan class="cls-6" x="1209.77" y="0">om </tspan><tspan class="cls-5" x="1293.39" y="0">A</tspan><tspan class="cls-6" x="1326.13" y="0">frica</tspan></text>
    <text class="cls-14" transform="translate(6.99 95.21)"><tspan class="cls-26" x="0" y="0">F</tspan><tspan class="cls-27" x="18.92" y="0">r</tspan><tspan x="30.36" y="0">om </tspan><tspan class="cls-34" x="95.38" y="0">A</tspan><tspan x="120.04" y="0">frican, </tspan><tspan class="cls-22" x="232.59" y="0">E</tspan><tspan x="252.88" y="0">gy</tspan><tspan class="cls-29" x="294.27" y="0">p</tspan><tspan x="316.69" y="0">t le</tspan><tspan class="cls-31" x="367.87" y="0">a</tspan><tspan x="388.16" y="0">ds with 4 </tspan><tspan class="cls-29" x="552.97" y="0">h</tspan><tspan x="574.09" y="0">o</tspan><tspan class="cls-29" x="596.21" y="0">n</tspan><tspan x="617.3" y="0">ou</tspan><tspan class="cls-27" x="660.35" y="0">r</tspan><tspan x="671.79" y="0">e</tspan><tspan class="cls-38" x="693.07" y="0">e</tspan><tspan class="cls-36" x="714.27" y="0">s</tspan><tspan x="732.93" y="0">, t</tspan><tspan class="cls-31" x="763.29" y="0">h</tspan><tspan x="784.42" y="0">e run</tspan><tspan class="cls-31" x="870.45" y="0">n</tspan><tspan x="891.54" y="0">er u</tspan><tspan class="cls-39" x="956.25" y="0">p</tspan><tspan x="978.82" y="0">s a</tspan><tspan class="cls-27" x="1028.26" y="0">r</tspan><tspan x="1039.7" y="0">e Ghana a</tspan><tspan class="cls-31" x="1213.51" y="0">n</tspan><tspan x="1234.6" y="0">d Nigeria</tspan></text>
    <g>
      <rect class="cls-19" x="47.33" y="194.52" width="1065.6" height="715.85"/>
      <rect class="cls-18" x="9.43" y="165.23" width="1069.04" height="705.52"/>
      <g class="cls-20">
        <polygon class="cls-37" points="1078.4 870.79 12.81 870.79 12.81 517.6 12.81 164.41 1078.4 164.41 1078.4 870.79"/>
        <line class="cls-37" x1="12.81" y1="517.6" x2="1078.4" y2="517.6"/>
        <line class="cls-37" x1="13.24" y1="695.06" x2="926.79" y2="695.92"/>
        <line class="cls-37" x1="619.26" y1="164.41" x2="619.26" y2="870.79"/>
        <line class="cls-37" x1="774.31" y1="164.41" x2="774.31" y2="517.6"/>
        <line class="cls-37" x1="926.79" y1="518.03" x2="926.79" y2="871.22"/>
        <line class="cls-37" x1="926.79" y1="164.84" x2="926.79" y2="518.03"/>
      </g>
      <text class="cls-12" transform="translate(230.32 361.41)"><tspan class="cls-23" x="0" y="0">E</tspan><tspan x="33.12" y="0">gy</tspan><tspan class="cls-30" x="100.66" y="0">p</tspan><tspan x="137.26" y="0">t</tspan></text>
      <text class="cls-12" transform="translate(230.32 617.25)"><tspan x="0" y="0">Ghana</tspan></text>
      <text class="cls-13" transform="translate(656.3 356.07)"><tspan x="0" y="0">Benin</tspan></text>
      <text class="cls-13" transform="translate(784.23 356.07)"><tspan x="0" y="0">B</tspan><tspan class="cls-32" x="19.17" y="0">o</tspan><tspan x="37.03" y="0">t</tspan><tspan class="cls-33" x="47.29" y="0">s</tspan><tspan class="cls-25" x="62.4" y="0">w</tspan><tspan x="86.06" y="0">ana</tspan></text>
      <text class="cls-13" transform="translate(948.12 356.07)"><tspan class="cls-21" x="0" y="0">L</tspan><tspan class="cls-40" x="14.48" y="0">e</tspan><tspan x="31.79" y="0">s</tspan><tspan class="cls-32" x="47.26" y="0">o</tspan><tspan x="65.12" y="0">t</tspan><tspan class="cls-32" x="75.39" y="0">h</tspan><tspan x="92.63" y="0">o</tspan></text>
      <text class="cls-13" transform="translate(959.19 704.95)"><tspan x="0" y="0">Sudan</tspan></text>
      <text class="cls-13" transform="translate(689.01 621.39)"><tspan x="0" y="0">Sier</tspan><tspan class="cls-24" x="52.44" y="0">r</tspan><tspan x="62.12" y="0">a </tspan><tspan class="cls-21" x="86.99" y="0">L</tspan><tspan x="101.47" y="0">eo</tspan><tspan class="cls-28" x="136.88" y="0">n</tspan><tspan x="154.09" y="0">e</tspan></text>
      <text class="cls-13" transform="translate(689.79 795.4)"><tspan x="0" y="0">So</tspan><tspan class="cls-16" x="36.87" y="0">u</tspan><tspan x="54.02" y="0">th </tspan><tspan class="cls-35" x="89.84" y="0">A</tspan><tspan x="109.97" y="0">frica</tspan></text>
      <text class="cls-12" transform="translate(230.32 799.88)"><tspan x="0" y="0">Nigeria</tspan></text>
    </g>
    <rect x="6.93" y="914.38" width="506" height="109"/>
    <rect x="6.93" y="110.38" width="506" height="50"/>
  </g>
</svg>