<?xml version="1.0" encoding="UTF-8"?>
<svg id="Layer_2" xmlns="http://www.w3.org/2000/svg" viewBox="0 0 1578.39 717.38">
  <defs>
    <style>
      .cls-1 {
        letter-spacing: 0em;
      }

      .cls-1, .cls-2, .cls-3, .cls-4, .cls-5, .cls-6, .cls-7, .cls-8, .cls-9, .cls-10 {
        font-family: AeonikTRIAL-Bold, 'Aeonik TRIAL';
        font-weight: 700;
      }

      .cls-2 {
        letter-spacing: -.02em;
      }

      .cls-3 {
        letter-spacing: -.02em;
      }

      .cls-4 {
        letter-spacing: -.02em;
      }

      .cls-11 {
        font-size: 48px;
      }

      .cls-11, .cls-12, .cls-13, .cls-14 {
        fill: #fff;
      }

      .cls-5 {
        letter-spacing: -.02em;
      }

      .cls-15 {
        font-family: MyriadPro-Regular, 'Myriad Pro';
      }

      .cls-16 {
        letter-spacing: 0em;
      }

      .cls-17 {
        opacity: .35;
      }

      .cls-17, .cls-18 {
        fill: #df0;
      }

      .cls-18 {
        opacity: .13;
      }

      .cls-19 {
        opacity: .76;
      }

      .cls-12 {
        font-size: 48.89px;
      }

      .cls-12, .cls-13, .cls-14 {
        font-family: AeonikTRIAL-Regular, 'Aeonik TRIAL';
      }

      .cls-20 {
        letter-spacing: -.03em;
      }

      .cls-21 {
        letter-spacing: -.02em;
      }

      .cls-22 {
        letter-spacing: -.02em;
      }

      .cls-23 {
        letter-spacing: -.02em;
      }

      .cls-24 {
        letter-spacing: -.02em;
      }

      .cls-25 {
        letter-spacing: -.03em;
      }

      .cls-26 {
        letter-spacing: -.03em;
      }

      .cls-7 {
        letter-spacing: 0em;
      }

      .cls-27 {
        letter-spacing: 0em;
      }

      .cls-28 {
        letter-spacing: 0em;
      }

      .cls-29 {
        letter-spacing: 0em;
      }

      .cls-30 {
        letter-spacing: -.01em;
      }

      .cls-13 {
        font-size: 24.44px;
      }

      .cls-31 {
        letter-spacing: 0em;
      }

      .cls-32 {
        letter-spacing: 0em;
      }

      .cls-14 {
        font-size: 38px;
      }

      .cls-33 {
        letter-spacing: 0em;
      }

      .cls-8 {
        letter-spacing: 0em;
      }

      .cls-34 {
        fill: none;
        stroke: #df0;
        stroke-miterlimit: 10;
        stroke-width: 2px;
      }

      .cls-35 {
        letter-spacing: 0em;
      }

      .cls-36 {
        letter-spacing: 0em;
      }

      .cls-37 {
        letter-spacing: 0em;
      }

      .cls-9 {
        letter-spacing: 0em;
      }

      .cls-10 {
        letter-spacing: 0em;
      }
    </style>
  </defs>
  <g id="Layer_1-2" data-name="Layer_1">
    <rect class="cls-17" x=".39" y="2.38" width="167" height="45"/>
    <rect class="cls-17" x="1274.39" y="2.38" width="149" height="45"/>
    <text class="cls-11" transform="translate(0 40.8)"><tspan class="cls-6" x="0" y="0">Just 3</tspan><tspan class="cls-15" x="130.03" y="0">%</tspan><tspan class="cls-6" x="168.05" y="0"> </tspan><tspan class="cls-10" x="179.95" y="0">o</tspan><tspan class="cls-6" x="208.65" y="0">f t</tspan><tspan class="cls-9" x="255.31" y="0">h</tspan><tspan class="cls-6" x="283.53" y="0">e 426 Figu</tspan><tspan class="cls-2" x="515.61" y="0">r</tspan><tspan class="cls-1" x="532.84" y="0">e</tspan><tspan class="cls-6" x="560.54" y="0">s Ho</tspan><tspan class="cls-10" x="660.13" y="0">n</tspan><tspan class="cls-7" x="688.36" y="0">o</tspan><tspan class="cls-4" x="717.16" y="0">r</tspan><tspan class="cls-6" x="734.39" y="0">ed on Me</tspan><tspan class="cls-3" x="943.28" y="0">r</tspan><tspan class="cls-6" x="960.51" y="0">cu</tspan><tspan class="cls-8" x="1015.76" y="0">r</tspan><tspan class="cls-6" x="1034.19" y="0">y A</tspan><tspan class="cls-4" x="1105.81" y="0">r</tspan><tspan class="cls-6" x="1123.04" y="0">e f</tspan><tspan class="cls-3" x="1180.11" y="0">r</tspan><tspan class="cls-6" x="1197.34" y="0">om </tspan><tspan class="cls-5" x="1280.96" y="0">A</tspan><tspan class="cls-6" x="1313.69" y="0">frica</tspan></text>
    <text class="cls-14" transform="translate(.46 95.21)"><tspan class="cls-25" x="0" y="0">F</tspan><tspan class="cls-26" x="18.92" y="0">r</tspan><tspan x="30.36" y="0">om </tspan><tspan class="cls-31" x="95.38" y="0">A</tspan><tspan x="120.04" y="0">frican, </tspan><tspan class="cls-21" x="232.59" y="0">E</tspan><tspan x="252.88" y="0">gy</tspan><tspan class="cls-27" x="294.27" y="0">p</tspan><tspan x="316.69" y="0">t le</tspan><tspan class="cls-29" x="367.87" y="0">a</tspan><tspan x="388.16" y="0">ds with 4 </tspan><tspan class="cls-27" x="552.97" y="0">h</tspan><tspan x="574.09" y="0">o</tspan><tspan class="cls-27" x="596.21" y="0">n</tspan><tspan x="617.3" y="0">ou</tspan><tspan class="cls-26" x="660.35" y="0">r</tspan><tspan x="671.79" y="0">e</tspan><tspan class="cls-35" x="693.07" y="0">e</tspan><tspan class="cls-33" x="714.27" y="0">s</tspan><tspan x="732.93" y="0">, t</tspan><tspan class="cls-29" x="763.29" y="0">h</tspan><tspan x="784.42" y="0">e run</tspan><tspan class="cls-29" x="870.45" y="0">n</tspan><tspan x="891.54" y="0">er u</tspan><tspan class="cls-36" x="956.25" y="0">p</tspan><tspan x="978.82" y="0">s a</tspan><tspan class="cls-26" x="1028.26" y="0">r</tspan><tspan x="1039.7" y="0">e Ghana a</tspan><tspan class="cls-29" x="1213.51" y="0">n</tspan><tspan x="1234.6" y="0">d Nigeria</tspan></text>
    <g>
      <rect class="cls-18" x="32.77" y="153.14" width="839.91" height="564.24"/>
      <rect class="cls-17" x="2.89" y="130.06" width="842.62" height="556.09"/>
      <g class="cls-19">
        <polygon class="cls-34" points="845.46 686.18 5.56 686.18 5.56 407.8 5.56 129.41 845.46 129.41 845.46 686.18"/>
        <line class="cls-34" x1="5.56" y1="407.8" x2="845.46" y2="407.8"/>
        <line class="cls-34" x1="5.9" y1="547.67" x2="725.96" y2="548.35"/>
        <line class="cls-34" x1="483.56" y1="129.41" x2="483.56" y2="686.18"/>
        <line class="cls-34" x1="605.78" y1="129.41" x2="605.78" y2="407.8"/>
        <line class="cls-34" x1="725.96" y1="408.13" x2="725.96" y2="686.52"/>
        <line class="cls-34" x1="725.96" y1="129.75" x2="725.96" y2="408.13"/>
      </g>
      <text class="cls-12" transform="translate(177 284.68)"><tspan class="cls-22" x="0" y="0">E</tspan><tspan x="26.11" y="0">gy</tspan><tspan class="cls-28" x="79.34" y="0">p</tspan><tspan x="108.19" y="0">t</tspan></text>
      <text class="cls-12" transform="translate(177 486.34)"><tspan x="0" y="0">Ghana</tspan></text>
      <text class="cls-13" transform="translate(512.76 280.47)"><tspan x="0" y="0">Benin</tspan></text>
      <text class="cls-13" transform="translate(613.6 280.47)"><tspan x="0" y="0">B</tspan><tspan class="cls-28" x="15.11" y="0">o</tspan><tspan x="29.19" y="0">t</tspan><tspan class="cls-30" x="37.28" y="0">s</tspan><tspan class="cls-24" x="49.18" y="0">w</tspan><tspan x="67.83" y="0">ana</tspan></text>
      <text class="cls-13" transform="translate(742.77 280.47)"><tspan class="cls-20" x="0" y="0">L</tspan><tspan class="cls-37" x="11.42" y="0">e</tspan><tspan x="25.05" y="0">s</tspan><tspan class="cls-28" x="37.25" y="0">o</tspan><tspan x="51.33" y="0">t</tspan><tspan class="cls-28" x="59.42" y="0">h</tspan><tspan x="73.01" y="0">o</tspan></text>
      <text class="cls-13" transform="translate(751.5 555.46)"><tspan x="0" y="0">Sudan</tspan></text>
      <text class="cls-13" transform="translate(538.55 489.6)"><tspan x="0" y="0">Sier</tspan><tspan class="cls-23" x="41.33" y="0">r</tspan><tspan x="48.96" y="0">a </tspan><tspan class="cls-20" x="68.56" y="0">L</tspan><tspan x="79.98" y="0">eo</tspan><tspan class="cls-28" x="107.89" y="0">n</tspan><tspan x="121.46" y="0">e</tspan></text>
      <text class="cls-13" transform="translate(539.16 626.76)"><tspan x="0" y="0">So</tspan><tspan class="cls-16" x="29.06" y="0">u</tspan><tspan x="42.58" y="0">th </tspan><tspan class="cls-32" x="70.81" y="0">A</tspan><tspan x="86.68" y="0">frica</tspan></text>
      <text class="cls-12" transform="translate(177 630.29)"><tspan x="0" y="0">Nigeria</tspan></text>
    </g>
  </g>
</svg>