<?xml version="1.0" encoding="UTF-8"?>
<svg id="Layer_2" xmlns="http://www.w3.org/2000/svg" viewBox="0 0 1550.69 1153.85">
  <defs>
    <style>
      .cls-1, .cls-2, .cls-3, .cls-4, .cls-5, .cls-6, .cls-7 {
        font-family: AeonikTRIAL-Bold, 'Aeonik TRIAL';
        font-weight: 700;
      }

      .cls-1, .cls-8 {
        letter-spacing: 0em;
      }

      .cls-2, .cls-9 {
        letter-spacing: -.02em;
      }

      .cls-3, .cls-10 {
        letter-spacing: -.02em;
      }

      .cls-11 {
        fill: #32e1b6;
      }

      .cls-11, .cls-12, .cls-13, .cls-14, .cls-15, .cls-16, .cls-17 {
        opacity: .4;
      }

      .cls-18, .cls-19, .cls-5 {
        font-size: 38px;
      }

      .cls-18, .cls-20, .cls-5, .cls-6, .cls-7 {
        fill: #fff;
      }

      .cls-21 {
        fill: none;
        stroke: #fff;
        stroke-miterlimit: 10;
        stroke-width: 3px;
      }

      .cls-12 {
        fill: #29dae4;
      }

      .cls-22 {
        font-family: MyriadPro-Regular, 'Myriad Pro';
      }

      .cls-13 {
        fill: #ffc502;
      }

      .cls-23, .cls-7 {
        font-size: 24px;
      }

      .cls-24, .cls-25, .cls-26, .cls-27, .cls-28, .cls-29, .cls-30, .cls-31, .cls-32, .cls-33, .cls-34, .cls-35, .cls-36, .cls-37, .cls-38, .cls-39 {
        font-family: AeonikTRIAL-Regular, 'Aeonik TRIAL';
      }

      .cls-40 {
        letter-spacing: 0em;
      }

      .cls-25 {
        letter-spacing: -.02em;
      }

      .cls-26 {
        letter-spacing: -.02em;
      }

      .cls-41 {
        letter-spacing: 0em;
      }

      .cls-27 {
        letter-spacing: -.02em;
      }

      .cls-14 {
        fill: #df0;
      }

      .cls-15 {
        fill: #ff1300;
      }

      .cls-28, .cls-42 {
        letter-spacing: 0em;
      }

      .cls-29 {
        letter-spacing: 0em;
      }

      .cls-16 {
        fill: #0d00ff;
      }

      .cls-30 {
        letter-spacing: -.04em;
      }

      .cls-31 {
        letter-spacing: -.03em;
      }

      .cls-32 {
        letter-spacing: -.03em;
      }

      .cls-33 {
        letter-spacing: -.03em;
      }

      .cls-34 {
        letter-spacing: 0em;
      }

      .cls-35 {
        letter-spacing: 0em;
      }

      .cls-36 {
        letter-spacing: .02em;
      }

      .cls-37 {
        letter-spacing: .02em;
      }

      .cls-38, .cls-43 {
        letter-spacing: 0em;
      }

      .cls-17 {
        fill: #f80;
      }

      .cls-44 {
        letter-spacing: -.02em;
      }

      .cls-45 {
        letter-spacing: -.02em;
      }

      .cls-46 {
        letter-spacing: -.01em;
      }

      .cls-47 {
        letter-spacing: -.02em;
      }

      .cls-39 {
        letter-spacing: 0em;
      }

      .cls-48 {
        letter-spacing: 0em;
      }

      .cls-6 {
        font-size: 48px;
      }

      .cls-49 {
        letter-spacing: 0em;
      }

      .cls-50 {
        letter-spacing: 0em;
      }

      .cls-51 {
        letter-spacing: 0em;
      }

      .cls-52 {
        letter-spacing: .02em;
      }

      .cls-53 {
        letter-spacing: 0em;
      }

      .cls-54 {
        letter-spacing: 0em;
      }
    </style>
  </defs>
  <g id="Layer_1-2" data-name="Layer_1">
    <rect class="cls-12" x="1057.69" y="138.14" width="492" height="480.51"/>
    <rect class="cls-16" x="1.69" y="142.29" width="1051" height="696.58"/>
    <rect class="cls-17" x="1415.69" y="1008.33" width="133.32" height="143.54"/>
    <rect class="cls-14" x="1052.96" y="1011.86" width="362.73" height="139.77"/>
    <rect class="cls-15" x="1.5" y="838.94" width="1052.19" height="312.85"/>
    <rect class="cls-11" x="1351.77" y="617.79" width="197.82" height="395.08"/>
    <rect class="cls-13" x="1053.69" y="618.1" width="298" height="395.77"/>
    <rect class="cls-21" x="1.5" y="138.14" width="1547.69" height="1014.21"/>
    <line class="cls-21" x1="1053.19" y1="618.65" x2="1549.19" y2="618.65"/>
    <line class="cls-21" x1="1.5" y1="839.5" x2="1053.19" y2="839.36"/>
    <line class="cls-21" x1="1052.46" y1="1012.02" x2="1549.19" y2="1012.02"/>
    <line class="cls-21" x1="1415.91" y1="1013.36" x2="1415.91" y2="1148.78"/>
    <text class="cls-6" transform="translate(8.3 40.8)"><tspan class="cls-42" x="0" y="0">E</tspan><tspan x="26.93" y="0">u</tspan><tspan class="cls-45" x="54.86" y="0">r</tspan><tspan x="72.1" y="0">opean cultu</tspan><tspan class="cls-46" x="337.44" y="0">r</tspan><tspan x="354.86" y="0">al icons domina</tspan><tspan class="cls-48" x="706.22" y="0">t</tspan><tspan x="723.3" y="0">e t</tspan><tspan class="cls-51" x="780.57" y="0">h</tspan><tspan class="cls-41" x="808.79" y="0">e leg</tspan><tspan class="cls-49" x="917.32" y="0">a</tspan><tspan class="cls-44" x="944.15" y="0">c</tspan><tspan x="970.6" y="0">y </tspan><tspan class="cls-46" x="1008.71" y="0">r</tspan><tspan class="cls-49" x="1026.13" y="0">a</tspan><tspan x="1052.96" y="0">ce on Me</tspan><tspan class="cls-45" x="1259.79" y="0">r</tspan><tspan x="1277.03" y="0">cu</tspan><tspan class="cls-54" x="1332.27" y="0">r</tspan><tspan x="1350.7" y="0">y </tspan></text>
    <text class="cls-18" transform="translate(8.76 98.07)"><tspan class="cls-24" x="0" y="0">T</tspan><tspan class="cls-35" x="22.08" y="0">h</tspan><tspan class="cls-24" x="43.21" y="0">e conti</tspan><tspan class="cls-34" x="158.57" y="0">n</tspan><tspan class="cls-24" x="179.66" y="0">ents </tspan><tspan class="cls-35" x="263.75" y="0">o</tspan><tspan class="cls-24" x="285.64" y="0">f origin </tspan><tspan class="cls-25" x="411.19" y="0">f</tspan><tspan class="cls-24" x="422.59" y="0">or t</tspan><tspan class="cls-34" x="479.78" y="0">h</tspan><tspan class="cls-38" x="500.9" y="0">o</tspan><tspan class="cls-24" x="522.94" y="0">se im</tspan><tspan class="cls-35" x="613.46" y="0">m</tspan><tspan class="cls-24" x="646.18" y="0">o</tspan><tspan class="cls-36" x="668.29" y="0">r</tspan><tspan class="cls-29" x="681.48" y="0">t</tspan><tspan class="cls-24" x="693.75" y="0">ali</tspan><tspan class="cls-31" x="729.01" y="0">z</tspan><tspan class="cls-24" x="746.11" y="0">ed on Me</tspan><tspan class="cls-33" x="906.85" y="0">r</tspan><tspan class="cls-24" x="918.29" y="0">cu</tspan><tspan class="cls-39" x="959.97" y="0">r</tspan><tspan class="cls-24" x="972.67" y="0">y</tspan><tspan class="cls-22" x="991.4" y="0">’</tspan><tspan class="cls-24" x="999.26" y="0">s su</tspan><tspan class="cls-37" x="1068.08" y="0">r</tspan><tspan class="cls-26" x="1081.34" y="0">f</tspan><tspan class="cls-34" x="1093.01" y="0">a</tspan><tspan class="cls-24" x="1113.3" y="0">ce</tspan></text>
    <text class="cls-5" transform="translate(475.73 498.02)"><tspan class="cls-8" x="0" y="0">E</tspan><tspan x="21.32" y="0">u</tspan><tspan class="cls-9" x="43.43" y="0">r</tspan><tspan x="57.07" y="0">ope </tspan></text>
    <text class="cls-5" transform="translate(514.36 1009.01)"><tspan class="cls-10" x="0" y="0">A</tspan><tspan x="25.76" y="0">sia</tspan></text>
    <text class="cls-5" transform="translate(1197.1 397.57)"><tspan x="0" y="0">No</tspan><tspan class="cls-52" x="49.4" y="0">r</tspan><tspan x="64.52" y="0">th A</tspan><tspan class="cls-50" x="136.72" y="0">m</tspan><tspan x="170.62" y="0">erica</tspan></text>
    <text class="cls-20" transform="translate(1095.09 794.89)"><tspan class="cls-19"><tspan class="cls-1" x="0" y="0">E</tspan><tspan class="cls-4" x="21.32" y="0">u</tspan><tspan class="cls-2" x="43.43" y="0">r</tspan><tspan class="cls-4" x="57.07" y="0">ope </tspan><tspan class="cls-22" x="134.63" y="0">| </tspan><tspan class="cls-3" x="151.77" y="0">A</tspan><tspan class="cls-4" x="177.53" y="0">sia</tspan></tspan><tspan class="cls-23"><tspan class="cls-22" x="28.25" y="28.8">(</tspan><tspan class="cls-30" x="35.07" y="28.8">T</tspan><tspan class="cls-24" x="48.03" y="28.8">ur</tspan><tspan class="cls-32" x="69.17" y="28.8">k</tspan><tspan class="cls-27" x="80.74" y="28.8">e</tspan><tspan class="cls-24" x="93.65" y="28.8">y </tspan><tspan class="cls-22" x="111.77" y="28.8">|</tspan><tspan class="cls-24" x="117.5" y="28.8" xml:space="preserve"> Ru</tspan><tspan class="cls-28" x="151.68" y="28.8">s</tspan><tspan class="cls-24" x="163.42" y="28.8">sia</tspan><tspan class="cls-22" x="193.01" y="28.8">)</tspan><tspan class="cls-24" x="199.82" y="28.8"> </tspan></tspan></text>
    <text class="cls-5" transform="translate(1186.53 1092.54)"><tspan class="cls-47" x="0" y="0">A</tspan><tspan class="cls-40" x="25.92" y="0">frica</tspan></text>
    <text class="cls-7" transform="translate(1436.06 1090.88)"><tspan x="0" y="0">Oceania</tspan></text>
    <text class="cls-5" transform="translate(1387.51 794.51)"><tspan x="0" y="0">So</tspan><tspan class="cls-53" x="46.55" y="0">u</tspan><tspan x="68.82" y="0">th </tspan><tspan x="-21.87" y="45.6">A</tspan><tspan class="cls-43" x="4.65" y="45.6">m</tspan><tspan x="38.55" y="45.6">erica</tspan></text>
    <line class="cls-21" x1="1351.29" y1="617.67" x2="1351.29" y2="1013.36"/>
    <line class="cls-21" x1="1053.96" y1="138.14" x2="1053.96" y2="1152.35"/>
  </g>
</svg>