<?xml version="1.0" encoding="UTF-8"?>
<svg id="Layer_2" xmlns="http://www.w3.org/2000/svg" viewBox="0 0 1426.57 1157">
  <defs>
    <style>
      .cls-1 {
        letter-spacing: 0em;
      }

      .cls-1, .cls-2, .cls-3, .cls-4, .cls-5 {
        font-family: AeonikTRIAL-Bold, 'Aeonik TRIAL';
        font-weight: 700;
      }

      .cls-2 {
        letter-spacing: -.02em;
      }

      .cls-3 {
        letter-spacing: -.02em;
      }

      .cls-6 {
        font-size: 48px;
      }

      .cls-6, .cls-7, .cls-8, .cls-9, .cls-10, .cls-11, .cls-12 {
        fill: #fff;
      }

      .cls-4 {
        letter-spacing: -.02em;
      }

      .cls-13 {
        stroke: #fff;
      }

      .cls-13, .cls-14 {
        fill: none;
        stroke-miterlimit: 10;
      }

      .cls-15 {
        font-family: MyriadPro-Regular, 'Myriad Pro';
      }

      .cls-16 {
        letter-spacing: 0em;
      }

      .cls-17 {
        letter-spacing: 0em;
      }

      .cls-18 {
        letter-spacing: 0em;
      }

      .cls-19 {
        fill: #ff1300;
        opacity: .18;
      }

      .cls-8 {
        font-size: 49.63px;
      }

      .cls-8, .cls-9, .cls-10, .cls-11, .cls-12 {
        font-family: AeonikTRIAL-Regular, 'Aeonik TRIAL';
      }

      .cls-14 {
        stroke: #ff1300;
        stroke-width: 3px;
      }

      .cls-20 {
        letter-spacing: -.02em;
      }

      .cls-21 {
        letter-spacing: -.02em;
      }

      .cls-22 {
        letter-spacing: -.03em;
      }

      .cls-23 {
        letter-spacing: -.02em;
      }

      .cls-24 {
        letter-spacing: -.02em;
      }

      .cls-25 {
        letter-spacing: -.02em;
      }

      .cls-26 {
        letter-spacing: -.02em;
      }

      .cls-27 {
        letter-spacing: -.02em;
      }

      .cls-28 {
        letter-spacing: -.02em;
      }

      .cls-29 {
        letter-spacing: -.01em;
      }

      .cls-30 {
        letter-spacing: -.03em;
      }

      .cls-31 {
        letter-spacing: -.03em;
      }

      .cls-32 {
        letter-spacing: -.03em;
      }

      .cls-33 {
        letter-spacing: -.03em;
      }

      .cls-34 {
        letter-spacing: -.03em;
      }

      .cls-35 {
        letter-spacing: -.03em;
      }

      .cls-36 {
        letter-spacing: 0em;
      }

      .cls-37 {
        letter-spacing: 0em;
      }

      .cls-38 {
        letter-spacing: 0em;
      }

      .cls-39 {
        letter-spacing: 0em;
      }

      .cls-40 {
        letter-spacing: 0em;
      }

      .cls-41 {
        letter-spacing: 0em;
      }

      .cls-42 {
        letter-spacing: 0em;
      }

      .cls-9 {
        font-size: 21px;
      }

      .cls-10 {
        font-size: 24px;
      }

      .cls-11 {
        font-size: 30px;
      }

      .cls-12 {
        font-size: 38px;
      }

      .cls-43 {
        letter-spacing: 0em;
      }

      .cls-44 {
        letter-spacing: 0em;
      }

      .cls-45 {
        letter-spacing: 0em;
      }

      .cls-46 {
        letter-spacing: 0em;
      }

      .cls-47 {
        letter-spacing: 0em;
      }
    </style>
  </defs>
  <g id="Layer_1-2" data-name="Layer_1">
    <text class="cls-6" transform="translate(0 157.08)"><tspan class="cls-3" x="0" y="0">A</tspan><tspan class="cls-5" x="32.54" y="0">sian Icons </tspan><tspan class="cls-15" x="271.29" y="0">–</tspan><tspan class="cls-5" x="295.29" y="0" xml:space="preserve"> A Di</tspan><tspan class="cls-4" x="398.11" y="0">v</tspan><tspan class="cls-5" x="422.97" y="0">e</tspan><tspan class="cls-1" x="450.86" y="0">r</tspan><tspan class="cls-5" x="468.57" y="0">sed G</tspan><tspan class="cls-2" x="599.13" y="0">r</tspan><tspan class="cls-5" x="616.36" y="0">oup </tspan></text>
    <text class="cls-12" transform="translate(0 208.88)"><tspan class="cls-30" x="0" y="0">F</tspan><tspan class="cls-33" x="18.92" y="0">r</tspan><tspan x="30.36" y="0">om t</tspan><tspan class="cls-39" x="107.96" y="0">h</tspan><tspan x="129.08" y="0">e Himal</tspan><tspan class="cls-28" x="254.06" y="0">a</tspan><tspan class="cls-21" x="273.86" y="0">y</tspan><tspan x="291.68" y="0">as </tspan><tspan class="cls-29" x="341.12" y="0">t</tspan><tspan x="353.21" y="0">o t</tspan><tspan class="cls-39" x="397.85" y="0">h</tspan><tspan x="418.98" y="0">e </tspan><tspan class="cls-27" x="450.22" y="0">K</tspan><tspan x="473.81" y="0">o</tspan><tspan class="cls-33" x="495.93" y="0">r</tspan><tspan x="507.37" y="0">ean </tspan><tspan class="cls-32" x="580.44" y="0">P</tspan><tspan x="602.02" y="0">eninsula, icons f</tspan><tspan class="cls-33" x="871.63" y="0">r</tspan><tspan x="883.07" y="0">om I</tspan><tspan class="cls-25" x="956.56" y="0">r</tspan><tspan x="968.41" y="0">an, Nepal a</tspan><tspan class="cls-41" x="1156.05" y="0">n</tspan><tspan x="1177.14" y="0">d </tspan><tspan class="cls-46" x="1209.75" y="0">U</tspan><tspan x="1234.82" y="0">zbekis</tspan><tspan class="cls-44" x="1342.59" y="0">t</tspan><tspan x="1354.87" y="0" xml:space="preserve">an   </tspan><tspan x="0" y="45.6">le</tspan><tspan class="cls-28" x="28.65" y="45.6">a</tspan><tspan class="cls-20" x="48.45" y="45.6">v</tspan><tspan x="66.27" y="45.6">e t</tspan><tspan class="cls-41" x="110.08" y="45.6">h</tspan><tspan x="131.21" y="45.6">eir mark on Me</tspan><tspan class="cls-34" x="384.59" y="45.6">r</tspan><tspan x="396.03" y="45.6">cu</tspan><tspan class="cls-47" x="437.71" y="45.6">r</tspan><tspan x="450.41" y="45.6">y alongside giants li</tspan><tspan class="cls-34" x="781.38" y="45.6">k</tspan><tspan x="799.69" y="45.6">e China, Japan, a</tspan><tspan class="cls-41" x="1082.71" y="45.6">n</tspan><tspan x="1103.8" y="45.6">d I</tspan><tspan class="cls-37" x="1144.88" y="45.6">n</tspan><tspan x="1165.97" y="45.6">dia</tspan></text>
    <rect x=".5" y="262" width="506" height="50"/>
    <rect x="3.5" width="506" height="109"/>
    <rect x=".5" y="1048" width="506" height="109"/>
    <rect class="cls-19" x="7" y="324.5" width="1058" height="696"/>
    <rect class="cls-19" x="35.02" y="345.43" width="1058" height="704.48"/>
    <text class="cls-8" transform="translate(314.01 494.07)"><tspan x="0" y="0">Japan</tspan></text>
    <text class="cls-11" transform="translate(821.67 499.83)"><tspan x="0" y="0">I</tspan><tspan class="cls-23" x="6.69" y="0">r</tspan><tspan x="16.05" y="0">an</tspan></text>
    <text class="cls-11" transform="translate(959.9 499.83)"><tspan x="0" y="0">A</tspan><tspan class="cls-23" x="19.74" y="0">r</tspan><tspan x="29.1" y="0">abia</tspan></text>
    <text class="cls-9" transform="translate(755.61 756.53)"><tspan x="0" y="0">Ar</tspan><tspan class="cls-40" x="20.75" y="0">m</tspan><tspan x="38.83" y="0">enia</tspan></text>
    <text class="cls-10" transform="translate(787.88 872.63)"><tspan x="0" y="0">I</tspan><tspan class="cls-42" x="5.35" y="0">n</tspan><tspan x="18.67" y="0">do</tspan><tspan class="cls-36" x="46.94" y="0">n</tspan><tspan class="cls-45" x="60.26" y="0">e</tspan><tspan x="73.65" y="0">sia</tspan></text>
    <text class="cls-10" transform="translate(793.59 962.63)"><tspan class="cls-22" x="0" y="0">L</tspan><tspan x="11.21" y="0">ena</tspan><tspan class="cls-36" x="51.07" y="0">n</tspan><tspan x="64.39" y="0">on</tspan></text>
    <text class="cls-10" transform="translate(819.52 915.63)"><tspan x="0" y="0">I</tspan><tspan class="cls-24" x="5.35" y="0">r</tspan><tspan class="cls-36" x="12.84" y="0">a</tspan><tspan class="cls-18" x="25.66" y="0">q</tspan></text>
    <text class="cls-10" transform="translate(808.7 1006.63)"><tspan x="0" y="0">Nepal</tspan></text>
    <text class="cls-10" transform="translate(854.88 746.63)"><tspan x="0" y="0">So</tspan><tspan class="cls-17" x="28.54" y="0">u</tspan><tspan x="41.81" y="0">th</tspan><tspan class="cls-26" x=".37" y="24">K</tspan><tspan x="15.28" y="24">o</tspan><tspan class="cls-35" x="29.24" y="24">r</tspan><tspan x="36.47" y="24">ea</tspan></text>
    <text class="cls-10" transform="translate(1110.13 728.63)"><tspan x="0" y="0">Phillipi</tspan><tspan class="cls-42" x="65.32" y="0">n</tspan><tspan class="cls-45" x="78.64" y="0">e</tspan><tspan class="cls-16" x="92.04" y="0">s</tspan></text>
    <text class="cls-10" transform="translate(1110.13 796.63)"><tspan x="0" y="0">Bangl</tspan><tspan class="cls-42" x="60.21" y="0">a</tspan><tspan x="73.03" y="0">d</tspan><tspan class="cls-45" x="87.33" y="0">e</tspan><tspan class="cls-16" x="100.73" y="0">sh</tspan></text>
    <text class="cls-10" transform="translate(1109 904.63)"><tspan class="cls-31" x="0" y="0">P</tspan><tspan x="13.54" y="0">al</tspan><tspan class="cls-45" x="31.15" y="0">e</tspan><tspan x="44.54" y="0">sti</tspan><tspan class="cls-36" x="69.12" y="0">n</tspan><tspan x="82.44" y="0">e</tspan></text>
    <text class="cls-10" transform="translate(1107 945.63)"><tspan class="cls-45" x="0" y="0">U</tspan><tspan x="15.84" y="0">zbekis</tspan><tspan class="cls-43" x="83.9" y="0">t</tspan><tspan x="91.65" y="0">an</tspan></text>
    <text class="cls-8" transform="translate(314.6 776.07)"><tspan x="0" y="0">China</tspan></text>
    <text class="cls-8" transform="translate(325.9 965.07)"><tspan x="0" y="0">I</tspan><tspan class="cls-38" x="11.07" y="0">n</tspan><tspan x="38.61" y="0">dia</tspan></text>
    <rect class="cls-14" x="6.5" y="325" width="1058.5" height="699"/>
    <line class="cls-14" x1="6" y1="652" x2="750" y2="652"/>
    <line class="cls-14" x1="7" y1="893" x2="749.5" y2="893"/>
    <line class="cls-14" x1="749.5" y1="325" x2="749.5" y2="1024"/>
    <line class="cls-14" x1="749.5" y1="659" x2="1065" y2="659"/>
    <line class="cls-14" x1="943.5" y1="325.5" x2="943.5" y2="659"/>
    <line class="cls-14" x1="749.5" y1="843" x2="1064.51" y2="843"/>
    <line class="cls-14" x1="747.5" y1="979.5" x2="928.5" y2="979.5"/>
    <line class="cls-14" x1="750.49" y1="888" x2="928.5" y2="888"/>
    <line class="cls-14" x1="749.5" y1="934" x2="928.5" y2="934"/>
    <line class="cls-14" x1="839.5" y1="658.5" x2="839.5" y2="841"/>
    <line class="cls-14" x1="928.5" y1="658.92" x2="928.5" y2="1022"/>
    <line class="cls-14" x1="1020.5" y1="659" x2="1020.5" y2="1024"/>
    <line class="cls-14" x1="975" y1="843" x2="975" y2="1024"/>
    <text class="cls-10" transform="translate(1110.13 991.19)"><tspan x="0" y="0">Vi</tspan><tspan class="cls-42" x="19.7" y="0">e</tspan><tspan x="33" y="0">tnam</tspan></text>
    <line class="cls-13" x1="1040.99" y1="1001.99" x2="1218.3" y2="1001.22"/>
    <rect class="cls-7" x="1108.88" y="1000.23" width="125" height="2.67"/>
    <circle class="cls-7" cx="1045.44" cy="1001.81" r="4.94"/>
    <line class="cls-13" x1="1040.99" y1="810.99" x2="1218.3" y2="810.22"/>
    <rect class="cls-7" x="1108.88" y="809.23" width="125" height="2.67"/>
    <circle class="cls-7" cx="1045.44" cy="810.81" r="4.94"/>
    <line class="cls-13" x1="970.5" y1="741.22" x2="1218.3" y2="741.22"/>
    <rect class="cls-7" x="1108.88" y="740.23" width="125" height="2.67"/>
    <circle class="cls-7" cx="970.44" cy="741.81" r="4.94"/>
    <line class="cls-13" x1="997.5" y1="955.22" x2="1218.3" y2="955.22"/>
    <rect class="cls-7" x="1108.88" y="954.23" width="125" height="2.67"/>
    <circle class="cls-7" cx="997.44" cy="955.81" r="4.94"/>
    <line class="cls-13" x1="955.5" y1="915.22" x2="1218.3" y2="915.22"/>
    <rect class="cls-7" x="1108.88" y="914.23" width="125" height="2.67"/>
    <circle class="cls-7" cx="956.44" cy="915.81" r="4.94"/>
  </g>
</svg>