<?xml version="1.0" encoding="UTF-8"?>
<svg id="Layer_2" xmlns="http://www.w3.org/2000/svg" viewBox="0 0 1426.57 1157">
  <defs>
    <style>
      .cls-1 {
        letter-spacing: 0em;
      }

      .cls-1, .cls-2, .cls-3, .cls-4, .cls-5 {
        font-family: AeonikTRIAL-Bold, 'Aeonik TRIAL';
        font-weight: 700;
      }

      .cls-2 {
        letter-spacing: -.02em;
      }

      .cls-3 {
        letter-spacing: -.02em;
      }

      .cls-6 {
        font-size: 48px;
      }

      .cls-6, .cls-7, .cls-8 {
        fill: #fff;
      }

      .cls-4 {
        letter-spacing: -.02em;
      }

      .cls-9 {
        font-family: MyriadPro-Regular, 'Myriad Pro';
      }

      .cls-10 {
        fill: #ff1300;
        opacity: .18;
      }

      .cls-7 {
        font-size: 49.63px;
      }

      .cls-7, .cls-8 {
        font-family: AeonikTRIAL-Regular, 'Aeonik TRIAL';
      }

      .cls-11 {
        fill: none;
        stroke: #ff1300;
        stroke-miterlimit: 10;
        stroke-width: 3px;
      }

      .cls-12 {
        letter-spacing: -.02em;
      }

      .cls-13 {
        letter-spacing: -.02em;
      }

      .cls-14 {
        letter-spacing: -.02em;
      }

      .cls-15 {
        letter-spacing: -.02em;
      }

      .cls-16 {
        letter-spacing: -.02em;
      }

      .cls-17 {
        letter-spacing: -.01em;
      }

      .cls-18 {
        letter-spacing: -.03em;
      }

      .cls-19 {
        letter-spacing: -.03em;
      }

      .cls-20 {
        letter-spacing: -.03em;
      }

      .cls-21 {
        letter-spacing: -.03em;
      }

      .cls-22 {
        letter-spacing: 0em;
      }

      .cls-23 {
        letter-spacing: 0em;
      }

      .cls-24 {
        letter-spacing: 0em;
      }

      .cls-25 {
        letter-spacing: 0em;
      }

      .cls-8 {
        font-size: 38px;
      }

      .cls-26 {
        letter-spacing: 0em;
      }

      .cls-27 {
        letter-spacing: 0em;
      }

      .cls-28 {
        letter-spacing: 0em;
      }
    </style>
  </defs>
  <g id="Layer_1-2" data-name="Layer_1">
    <text class="cls-6" transform="translate(0 157.08)"><tspan class="cls-3" x="0" y="0">A</tspan><tspan class="cls-5" x="32.54" y="0">sian Icons </tspan><tspan class="cls-9" x="271.29" y="0">–</tspan><tspan class="cls-5" x="295.29" y="0" xml:space="preserve"> A Di</tspan><tspan class="cls-4" x="398.11" y="0">v</tspan><tspan class="cls-5" x="422.97" y="0">e</tspan><tspan class="cls-1" x="450.86" y="0">r</tspan><tspan class="cls-5" x="468.57" y="0">sed G</tspan><tspan class="cls-2" x="599.13" y="0">r</tspan><tspan class="cls-5" x="616.36" y="0">oup </tspan></text>
    <text class="cls-8" transform="translate(0 208.88)"><tspan class="cls-18" x="0" y="0">F</tspan><tspan class="cls-20" x="18.92" y="0">r</tspan><tspan x="30.36" y="0">om t</tspan><tspan class="cls-24" x="107.96" y="0">h</tspan><tspan x="129.08" y="0">e Himal</tspan><tspan class="cls-16" x="254.06" y="0">a</tspan><tspan class="cls-13" x="273.86" y="0">y</tspan><tspan x="291.68" y="0">as </tspan><tspan class="cls-17" x="341.12" y="0">t</tspan><tspan x="353.21" y="0">o t</tspan><tspan class="cls-24" x="397.85" y="0">h</tspan><tspan x="418.98" y="0">e </tspan><tspan class="cls-15" x="450.22" y="0">K</tspan><tspan x="473.81" y="0">o</tspan><tspan class="cls-20" x="495.93" y="0">r</tspan><tspan x="507.37" y="0">ean </tspan><tspan class="cls-19" x="580.44" y="0">P</tspan><tspan x="602.02" y="0">eninsula, icons f</tspan><tspan class="cls-20" x="871.63" y="0">r</tspan><tspan x="883.07" y="0">om I</tspan><tspan class="cls-14" x="956.56" y="0">r</tspan><tspan x="968.41" y="0">an, Nepal a</tspan><tspan class="cls-25" x="1156.05" y="0">n</tspan><tspan x="1177.14" y="0">d </tspan><tspan class="cls-27" x="1209.75" y="0">U</tspan><tspan x="1234.82" y="0">zbekis</tspan><tspan class="cls-26" x="1342.59" y="0">t</tspan><tspan x="1354.87" y="0" xml:space="preserve">an   </tspan><tspan x="0" y="45.6">le</tspan><tspan class="cls-16" x="28.65" y="45.6">a</tspan><tspan class="cls-12" x="48.45" y="45.6">v</tspan><tspan x="66.27" y="45.6">e t</tspan><tspan class="cls-25" x="110.08" y="45.6">h</tspan><tspan x="131.21" y="45.6">eir mark on Me</tspan><tspan class="cls-21" x="384.59" y="45.6">r</tspan><tspan x="396.03" y="45.6">cu</tspan><tspan class="cls-28" x="437.71" y="45.6">r</tspan><tspan x="450.41" y="45.6">y alongside giants li</tspan><tspan class="cls-21" x="781.38" y="45.6">k</tspan><tspan x="799.69" y="45.6">e China, Japan, a</tspan><tspan class="cls-25" x="1082.71" y="45.6">n</tspan><tspan x="1103.8" y="45.6">d I</tspan><tspan class="cls-22" x="1144.88" y="45.6">n</tspan><tspan x="1165.97" y="45.6">dia</tspan></text>
    <rect x=".5" y="262" width="506" height="50"/>
    <rect x="3.5" width="506" height="109"/>
    <rect x=".5" y="1048" width="506" height="109"/>
    <rect class="cls-10" x="7" y="324.5" width="1058" height="696"/>
    <rect class="cls-10" x="35.02" y="345.43" width="1058" height="704.48"/>
    <text class="cls-7" transform="translate(314.01 494.07)"><tspan x="0" y="0">Japan</tspan></text>
    <text class="cls-7" transform="translate(314.6 776.07)"><tspan x="0" y="0">China</tspan></text>
    <text class="cls-7" transform="translate(325.9 965.07)"><tspan x="0" y="0">I</tspan><tspan class="cls-23" x="11.07" y="0">n</tspan><tspan x="38.61" y="0">dia</tspan></text>
    <rect class="cls-11" x="6.5" y="325" width="1058.5" height="699"/>
    <line class="cls-11" x1="6" y1="652" x2="750" y2="652"/>
    <line class="cls-11" x1="7" y1="893" x2="749.5" y2="893"/>
  </g>
</svg>