<?xml version="1.0" encoding="UTF-8"?>
<svg id="Layer_2" xmlns="http://www.w3.org/2000/svg" viewBox="0 0 1677.69 1463">
  <defs>
    <style>
      .cls-1, .cls-2, .cls-3, .cls-4, .cls-5, .cls-6, .cls-7 {
        font-family: AeonikTRIAL-Bold, 'Aeonik TRIAL';
        font-weight: 700;
      }

      .cls-1, .cls-8 {
        letter-spacing: 0em;
      }

      .cls-2, .cls-9 {
        letter-spacing: -.02em;
      }

      .cls-3, .cls-10 {
        letter-spacing: -.02em;
      }

      .cls-11 {
        fill: #32e1b6;
      }

      .cls-11, .cls-12, .cls-13, .cls-14, .cls-15, .cls-16, .cls-17, .cls-18 {
        opacity: .4;
      }

      .cls-19, .cls-20, .cls-5 {
        font-size: 38px;
      }

      .cls-19, .cls-21, .cls-5, .cls-6, .cls-7 {
        fill: #fff;
      }

      .cls-22 {
        fill: none;
        stroke: #fff;
        stroke-miterlimit: 10;
        stroke-width: 3px;
      }

      .cls-12 {
        fill: #29dae4;
      }

      .cls-23 {
        font-family: MyriadPro-Regular, 'Myriad Pro';
      }

      .cls-13 {
        fill: #ffc502;
      }

      .cls-24 {
        letter-spacing: 0em;
      }

      .cls-25 {
        letter-spacing: 0em;
      }

      .cls-26, .cls-7 {
        font-size: 24px;
      }

      .cls-27 {
        letter-spacing: 0em;
      }

      .cls-28, .cls-29, .cls-30, .cls-31, .cls-32, .cls-33, .cls-34, .cls-35, .cls-36, .cls-37, .cls-38, .cls-39 {
        font-family: AeonikTRIAL-Regular, 'Aeonik TRIAL';
      }

      .cls-40 {
        letter-spacing: 0em;
      }

      .cls-29 {
        letter-spacing: -.02em;
      }

      .cls-30 {
        letter-spacing: -.02em;
      }

      .cls-14 {
        fill: #df0;
      }

      .cls-15 {
        fill: #ff1300;
      }

      .cls-31, .cls-41 {
        letter-spacing: 0em;
      }

      .cls-16 {
        fill: #0d00ff;
      }

      .cls-32 {
        letter-spacing: -.04em;
      }

      .cls-33 {
        letter-spacing: -.03em;
      }

      .cls-34, .cls-42 {
        letter-spacing: -.03em;
      }

      .cls-35, .cls-43 {
        letter-spacing: -.03em;
      }

      .cls-36, .cls-44 {
        letter-spacing: 0em;
      }

      .cls-37, .cls-45 {
        letter-spacing: 0em;
      }

      .cls-38, .cls-46 {
        letter-spacing: 0em;
      }

      .cls-39, .cls-47 {
        letter-spacing: 0em;
      }

      .cls-17 {
        fill: #f80;
      }

      .cls-48 {
        letter-spacing: -.02em;
      }

      .cls-49 {
        letter-spacing: -.02em;
      }

      .cls-50 {
        letter-spacing: -.02em;
      }

      .cls-51 {
        letter-spacing: -.02em;
      }

      .cls-52 {
        letter-spacing: -.02em;
      }

      .cls-53 {
        letter-spacing: -.02em;
      }

      .cls-54 {
        letter-spacing: -.01em;
      }

      .cls-55 {
        letter-spacing: -.02em;
      }

      .cls-56 {
        letter-spacing: -.03em;
      }

      .cls-57 {
        letter-spacing: -.01em;
      }

      .cls-58 {
        letter-spacing: 0em;
      }

      .cls-59 {
        letter-spacing: 0em;
      }

      .cls-60 {
        letter-spacing: 0em;
      }

      .cls-6 {
        font-size: 48px;
      }

      .cls-61 {
        letter-spacing: 0em;
      }

      .cls-18 {
        fill: #ff1300;
      }

      .cls-62 {
        letter-spacing: .02em;
      }

      .cls-63 {
        letter-spacing: .02em;
      }

      .cls-64 {
        letter-spacing: 0em;
      }

      .cls-65 {
        letter-spacing: 0em;
      }
    </style>
  </defs>
  <g id="Layer_1-2" data-name="Layer_1">
    <rect class="cls-16" x="1.69" y="109" width="581" height="56"/>
    <rect class="cls-18" x="1227.69" y="171" width="184" height="52"/>
    <rect class="cls-12" x="184.69" y="222" width="233" height="40"/>
    <rect class="cls-16" x="393.69" y="173" width="183" height="44"/>
    <text class="cls-6" transform="translate(8.3 151.94)"><tspan class="cls-41" x="0" y="0">E</tspan><tspan x="26.93" y="0">u</tspan><tspan class="cls-52" x="54.86" y="0">r</tspan><tspan x="72.1" y="0">opean icons domina</tspan><tspan class="cls-60" x="526.36" y="0">t</tspan><tspan x="543.45" y="0">e t</tspan><tspan class="cls-61" x="600.71" y="0">h</tspan><tspan x="628.94" y="0">e leg</tspan><tspan class="cls-61" x="737.46" y="0">a</tspan><tspan class="cls-50" x="764.3" y="0">c</tspan><tspan x="790.74" y="0">y </tspan><tspan class="cls-54" x="828.85" y="0">r</tspan><tspan class="cls-61" x="846.28" y="0">a</tspan><tspan x="873.11" y="0">ce on Me</tspan><tspan class="cls-51" x="1079.94" y="0">r</tspan><tspan class="cls-24" x="1097.17" y="0">cu</tspan><tspan class="cls-65" x="1152.42" y="0">r</tspan><tspan x="1170.85" y="0">y </tspan></text>
    <text class="cls-19" transform="translate(8.76 208.83)"><tspan class="cls-28"><tspan x="0" y="0">O</tspan><tspan class="cls-27" x="28.58" y="0">u</tspan><tspan x="49.59" y="0">t </tspan><tspan class="cls-45" x="72.12" y="0">o</tspan><tspan x="94.01" y="0">f 426 </tspan><tspan class="cls-45" x="191.33" y="0">h</tspan><tspan x="212.45" y="0">o</tspan><tspan class="cls-45" x="234.57" y="0">n</tspan><tspan x="255.66" y="0">ou</tspan><tspan class="cls-42" x="298.71" y="0">r</tspan><tspan x="310.15" y="0">e</tspan><tspan class="cls-47" x="331.43" y="0">e</tspan><tspan class="cls-58" x="352.63" y="0">s</tspan><tspan x="371.29" y="0">, </tspan><tspan class="cls-44" x="389.08" y="0">n</tspan><tspan x="410.17" y="0">early half a</tspan><tspan class="cls-43" x="592.56" y="0">r</tspan><tspan class="cls-25" x="604" y="0">e f</tspan><tspan class="cls-43" x="647.51" y="0">r</tspan><tspan x="658.95" y="0">om </tspan><tspan class="cls-8" x="723.96" y="0">E</tspan><tspan x="744.75" y="0">u</tspan><tspan class="cls-43" x="765.69" y="0">r</tspan><tspan x="777.12" y="0">op</tspan><tspan class="cls-56" x="821.89" y="0">e</tspan><tspan x="841.91" y="0">, </tspan><tspan class="cls-49" x="859.7" y="0">f</tspan><tspan x="871.1" y="0">oll</tspan><tspan class="cls-53" x="907.96" y="0">ow</tspan><tspan x="958.5" y="0">ed </tspan><tspan class="cls-48" x="1012.38" y="0">b</tspan><tspan x="1034.19" y="0">y </tspan><tspan class="cls-57" x="1062.88" y="0">A</tspan><tspan x="1087.47" y="0">sia with 92 figu</tspan><tspan class="cls-43" x="1341.26" y="0">r</tspan><tspan class="cls-46" x="1352.7" y="0">e</tspan><tspan class="cls-59" x="1373.91" y="0">s</tspan><tspan x="1392.56" y="0">, while No</tspan><tspan class="cls-63" x="1555.24" y="0">r</tspan><tspan x="1568.42" y="0">th </tspan></tspan><tspan class="cls-28" x="0" y="45.6">A</tspan><tspan class="cls-37" x="25" y="45.6">m</tspan><tspan class="cls-28" x="57.72" y="45.6">erica</tspan><tspan class="cls-23" x="140.18" y="45.6">&apos;</tspan><tspan class="cls-28" x="147.32" y="45.6">s </tspan><tspan class="cls-29" x="176.24" y="45.6">6</tspan><tspan class="cls-28" x="198.05" y="45.6">7 </tspan><tspan class="cls-37" x="227.46" y="45.6">h</tspan><tspan class="cls-28" x="248.59" y="45.6">o</tspan><tspan class="cls-36" x="270.71" y="45.6">n</tspan><tspan class="cls-28" x="291.8" y="45.6">ou</tspan><tspan class="cls-34" x="334.85" y="45.6">r</tspan><tspan class="cls-28" x="346.29" y="45.6">e</tspan><tspan class="cls-39" x="367.57" y="45.6">e</tspan><tspan class="cls-28" x="388.77" y="45.6">s signal a rising p</tspan><tspan class="cls-35" x="679.12" y="45.6">r</tspan><tspan class="cls-38" x="690.56" y="45.6">e</tspan><tspan class="cls-28" x="711.76" y="45.6">se</tspan><tspan class="cls-37" x="752.01" y="45.6">n</tspan><tspan class="cls-28" x="773.1" y="45.6">ce</tspan></text>
    <g>
      <rect class="cls-12" x="1057.69" y="332.27" width="492" height="480.51"/>
      <rect class="cls-16" x="1.69" y="336.42" width="1051" height="696.58"/>
      <rect class="cls-17" x="1415.69" y="1202.46" width="133.32" height="143.54"/>
      <rect class="cls-14" x="1052.96" y="1206" width="362.73" height="139.77"/>
      <rect class="cls-15" x="1.5" y="1033.07" width="1052.19" height="312.85"/>
      <rect class="cls-11" x="1351.77" y="811.92" width="197.82" height="395.08"/>
      <rect class="cls-13" x="1053.69" y="812.23" width="298" height="395.77"/>
      <rect class="cls-22" x="1.5" y="332.27" width="1547.69" height="1014.21"/>
      <line class="cls-22" x1="1053.19" y1="812.79" x2="1549.19" y2="812.79"/>
      <line class="cls-22" x1="1.5" y1="1033.64" x2="1053.19" y2="1033.5"/>
      <line class="cls-22" x1="1052.46" y1="1206.15" x2="1549.19" y2="1206.15"/>
      <line class="cls-22" x1="1415.91" y1="1207.5" x2="1415.91" y2="1342.92"/>
      <text class="cls-5" transform="translate(475.73 692.16)"><tspan class="cls-8" x="0" y="0">E</tspan><tspan x="21.32" y="0">u</tspan><tspan class="cls-9" x="43.43" y="0">r</tspan><tspan x="57.07" y="0">ope </tspan></text>
      <text class="cls-5" transform="translate(514.36 1203.15)"><tspan class="cls-10" x="0" y="0">A</tspan><tspan x="25.76" y="0">sia</tspan></text>
      <text class="cls-5" transform="translate(1197.1 591.71)"><tspan x="0" y="0">No</tspan><tspan class="cls-62" x="49.4" y="0">r</tspan><tspan x="64.52" y="0">th A</tspan><tspan class="cls-47" x="136.72" y="0">m</tspan><tspan x="170.62" y="0">erica</tspan></text>
      <text class="cls-21" transform="translate(1095.09 989.03)"><tspan class="cls-20"><tspan class="cls-1" x="0" y="0">E</tspan><tspan class="cls-4" x="21.32" y="0">u</tspan><tspan class="cls-2" x="43.43" y="0">r</tspan><tspan class="cls-4" x="57.07" y="0">ope </tspan><tspan class="cls-23" x="134.63" y="0">| </tspan><tspan class="cls-3" x="151.77" y="0">A</tspan><tspan class="cls-4" x="177.53" y="0">sia</tspan></tspan><tspan class="cls-26"><tspan class="cls-23" x="28.25" y="28.8">(</tspan><tspan class="cls-32" x="35.07" y="28.8">T</tspan><tspan class="cls-28" x="48.03" y="28.8">ur</tspan><tspan class="cls-33" x="69.17" y="28.8">k</tspan><tspan class="cls-30" x="80.74" y="28.8">e</tspan><tspan class="cls-28" x="93.65" y="28.8">y </tspan><tspan class="cls-23" x="111.77" y="28.8">|</tspan><tspan class="cls-28" x="117.5" y="28.8" xml:space="preserve"> Ru</tspan><tspan class="cls-31" x="151.68" y="28.8">s</tspan><tspan class="cls-28" x="163.42" y="28.8">sia</tspan><tspan class="cls-23" x="193.01" y="28.8">)</tspan><tspan class="cls-28" x="199.82" y="28.8"> </tspan></tspan></text>
      <text class="cls-5" transform="translate(1186.53 1295.68)"><tspan class="cls-55" x="0" y="0">A</tspan><tspan class="cls-40" x="25.92" y="0">frica</tspan></text>
      <text class="cls-7" transform="translate(1436.06 1294.01)"><tspan x="0" y="0">Oceania</tspan></text>
      <text class="cls-5" transform="translate(1398.51 988.65)"><tspan x="0" y="0">So</tspan><tspan class="cls-64" x="46.55" y="0">u</tspan><tspan x="68.82" y="0">th </tspan><tspan x="-21.87" y="45.6">A</tspan><tspan class="cls-46" x="4.65" y="45.6">m</tspan><tspan x="38.55" y="45.6">erica</tspan></text>
      <line class="cls-22" x1="1351.29" y1="811.81" x2="1351.29" y2="1207.5"/>
      <line class="cls-22" x1="1053.96" y1="332.27" x2="1053.96" y2="1346.48"/>
    </g>
    <rect x="1.69" width="506" height="109"/>
    <rect x="1.69" y="1354" width="506" height="109"/>
    <rect x="1.69" y="272" width="506" height="50"/>
  </g>
</svg>