<?xml version="1.0" encoding="UTF-8"?>
<svg id="Layer_2" xmlns="http://www.w3.org/2000/svg" viewBox="0 0 1379.86 1175">
  <defs>
    <style>
      .cls-1 {
        letter-spacing: 0em;
      }

      .cls-1, .cls-2, .cls-3, .cls-4, .cls-5, .cls-6 {
        font-family: AeonikTRIAL-Bold, 'Aeonik TRIAL';
        font-weight: 700;
      }

      .cls-2 {
        letter-spacing: 0em;
      }

      .cls-3 {
        letter-spacing: -.04em;
      }

      .cls-4 {
        letter-spacing: -.02em;
      }

      .cls-7 {
        font-size: 48px;
      }

      .cls-7, .cls-8, .cls-9, .cls-10, .cls-11, .cls-12, .cls-13, .cls-14, .cls-15, .cls-16, .cls-17, .cls-18 {
        fill: #fff;
      }

      .cls-19 {
        fill: #0d00ff;
        opacity: .18;
      }

      .cls-8, .cls-15 {
        font-size: 26.32px;
      }

      .cls-9 {
        font-size: 17.72px;
      }

      .cls-10 {
        font-size: 38px;
      }

      .cls-20 {
        stroke: #fff;
      }

      .cls-20, .cls-21 {
        fill: none;
        stroke-miterlimit: 10;
      }

      .cls-22 {
        font-family: MyriadPro-Regular, 'Myriad Pro';
      }

      .cls-23 {
        letter-spacing: 0em;
      }

      .cls-23, .cls-24, .cls-25, .cls-26, .cls-27, .cls-28, .cls-29, .cls-30, .cls-31, .cls-32, .cls-33, .cls-34, .cls-35, .cls-36, .cls-37, .cls-12, .cls-13, .cls-14, .cls-15, .cls-16, .cls-17, .cls-18 {
        font-family: AeonikTRIAL-Regular, 'Aeonik TRIAL';
      }

      .cls-21 {
        stroke: #0d00ff;
        stroke-width: 3px;
      }

      .cls-38 {
        letter-spacing: 0em;
      }

      .cls-25, .cls-39 {
        letter-spacing: -.02em;
      }

      .cls-26 {
        letter-spacing: -.01em;
      }

      .cls-27, .cls-40 {
        letter-spacing: -.01em;
      }

      .cls-28 {
        letter-spacing: 0em;
      }

      .cls-29 {
        letter-spacing: 0em;
      }

      .cls-30, .cls-41 {
        letter-spacing: 0em;
      }

      .cls-42 {
        fill: #0d00ff;
        opacity: .4;
      }

      .cls-31 {
        letter-spacing: -.04em;
      }

      .cls-32 {
        letter-spacing: -.03em;
      }

      .cls-33 {
        letter-spacing: -.03em;
      }

      .cls-34 {
        letter-spacing: -.03em;
      }

      .cls-35 {
        letter-spacing: -.03em;
      }

      .cls-36 {
        letter-spacing: 0em;
      }

      .cls-37 {
        letter-spacing: 0em;
      }

      .cls-43 {
        letter-spacing: -.02em;
      }

      .cls-44 {
        letter-spacing: -.02em;
      }

      .cls-45 {
        letter-spacing: -.02em;
      }

      .cls-46 {
        letter-spacing: -.02em;
      }

      .cls-47 {
        letter-spacing: -.02em;
      }

      .cls-48 {
        letter-spacing: -.02em;
      }

      .cls-49 {
        letter-spacing: -.02em;
      }

      .cls-50 {
        letter-spacing: -.01em;
      }

      .cls-51 {
        letter-spacing: -.01em;
      }

      .cls-52 {
        letter-spacing: -.01em;
      }

      .cls-53 {
        letter-spacing: -.05em;
      }

      .cls-54 {
        letter-spacing: -.03em;
      }

      .cls-55 {
        letter-spacing: -.03em;
      }

      .cls-56 {
        letter-spacing: -.03em;
      }

      .cls-57 {
        letter-spacing: -.03em;
      }

      .cls-58 {
        letter-spacing: -.03em;
      }

      .cls-59 {
        letter-spacing: -.03em;
      }

      .cls-60 {
        letter-spacing: -.03em;
      }

      .cls-61 {
        letter-spacing: 0em;
      }

      .cls-62 {
        letter-spacing: 0em;
      }

      .cls-63 {
        letter-spacing: 0em;
      }

      .cls-64 {
        letter-spacing: 0em;
      }

      .cls-65 {
        letter-spacing: 0em;
      }

      .cls-12 {
        font-size: 20.55px;
      }

      .cls-66 {
        letter-spacing: -.01em;
      }

      .cls-67 {
        letter-spacing: -.01em;
      }

      .cls-68 {
        letter-spacing: -.01em;
      }

      .cls-13 {
        font-size: 29.06px;
      }

      .cls-14 {
        font-size: 26.22px;
      }

      .cls-16 {
        font-size: 25.52px;
      }

      .cls-17 {
        font-size: 27.64px;
      }

      .cls-69 {
        letter-spacing: 0em;
      }

      .cls-18 {
        font-size: 34.02px;
      }

      .cls-70 {
        letter-spacing: 0em;
      }

      .cls-71 {
        letter-spacing: 0em;
      }

      .cls-72 {
        letter-spacing: 0em;
      }

      .cls-73 {
        letter-spacing: 0em;
      }

      .cls-74 {
        letter-spacing: 0em;
      }

      .cls-75 {
        letter-spacing: .02em;
      }

      .cls-6 {
        letter-spacing: 0em;
      }

      .cls-76 {
        letter-spacing: 0em;
      }

      .cls-77 {
        letter-spacing: 0em;
      }
    </style>
  </defs>
  <g id="Layer_1-2" data-name="Layer_1">
    <text/>
    <rect class="cls-42" x="472" y="109" width="380" height="56"/>
    <text class="cls-7" transform="translate(.5 153.08)"><tspan class="cls-2" x="0" y="0">E</tspan><tspan class="cls-5" x="26.93" y="0">u</tspan><tspan class="cls-4" x="54.86" y="0">r</tspan><tspan class="cls-5" x="72.1" y="0">opean </tspan><tspan class="cls-3" x="225.31" y="0">F</tspan><tspan class="cls-5" x="249.69" y="0">o</tspan><tspan class="cls-6" x="278.49" y="0">o</tspan><tspan class="cls-5" x="307.2" y="0">tprint </tspan><tspan class="cls-22" x="441.26" y="0">–</tspan><tspan class="cls-5" x="465.26" y="0" xml:space="preserve"> A S</tspan><tspan class="cls-1" x="552.57" y="0">t</tspan><tspan class="cls-5" x="569.66" y="0">ellar Imp</tspan><tspan class="cls-6" x="762.57" y="0">a</tspan><tspan class="cls-5" x="789.4" y="0">ct</tspan></text>
    <text class="cls-10" transform="translate(.5 210.25)"><tspan class="cls-31" x="0" y="0">W</tspan><tspan class="cls-37" x="35.11" y="0">e</tspan><tspan class="cls-24" x="56.32" y="0">s</tspan><tspan class="cls-26" x="75.28" y="0">t</tspan><tspan class="cls-24" x="87.36" y="0">ern </tspan><tspan class="cls-28" x="152.45" y="0">E</tspan><tspan class="cls-23" x="173.24" y="0">u</tspan><tspan class="cls-34" x="194.18" y="0">r</tspan><tspan class="cls-24" x="205.62" y="0">opean countri</tspan><tspan class="cls-37" x="441.06" y="0">e</tspan><tspan class="cls-24" x="462.26" y="0">s</tspan><tspan class="cls-22" x="481.22" y="0">: </tspan><tspan class="cls-33" x="497.15" y="0">F</tspan><tspan class="cls-25" x="516.07" y="0">r</tspan><tspan class="cls-24" x="527.92" y="0">a</tspan><tspan class="cls-36" x="548.44" y="0">n</tspan><tspan class="cls-24" x="569.53" y="0">c</tspan><tspan class="cls-35" x="590.28" y="0">e</tspan><tspan class="cls-24" x="610.31" y="0">, Engla</tspan><tspan class="cls-36" x="721.11" y="0">n</tspan><tspan class="cls-24" x="742.2" y="0">d </tspan><tspan class="cls-22" x="774.81" y="0">(</tspan><tspan class="cls-24" x="785.6" y="0">Uni</tspan><tspan class="cls-27" x="839.44" y="0">t</tspan><tspan class="cls-24" x="851.53" y="0">ed Kingdom</tspan><tspan class="cls-22" x="1058.7" y="0">)</tspan><tspan class="cls-24" x="1069.49" y="0">, I</tspan><tspan class="cls-29" x="1095.75" y="0">t</tspan><tspan class="cls-24" x="1108.02" y="0">aly le</tspan><tspan class="cls-36" x="1193.25" y="0">a</tspan><tspan class="cls-24" x="1213.55" y="0">d </tspan><tspan class="cls-24"><tspan x="0" y="45.6">t</tspan><tspan class="cls-63" x="12.58" y="45.6">h</tspan><tspan x="33.71" y="45.6">e cultu</tspan><tspan class="cls-39" x="147.51" y="45.6">r</tspan><tspan x="159.37" y="45.6">al c</tspan><tspan class="cls-39" x="217.96" y="45.6">r</tspan><tspan x="229.82" y="45.6">a</tspan><tspan class="cls-40" x="250.34" y="45.6">t</tspan><tspan x="262.42" y="45.6">e</tspan><tspan class="cls-66" x="283.7" y="45.6">r</tspan><tspan x="295.83" y="45.6">s on t</tspan><tspan class="cls-63" x="390.71" y="45.6">h</tspan><tspan x="411.84" y="45.6">e fi</tspan><tspan class="cls-66" x="462.72" y="45.6">r</tspan><tspan x="474.84" y="45.6">st pla</tspan><tspan class="cls-63" x="566.87" y="45.6">ne</tspan><tspan x="609.02" y="45.6">t in t</tspan><tspan class="cls-63" x="682.77" y="45.6">h</tspan><tspan x="703.9" y="45.6">e solar </tspan><tspan class="cls-68" x="826.6" y="45.6">s</tspan><tspan class="cls-69" x="845.1" y="45.6">y</tspan><tspan x="863.5" y="45.6">s</tspan><tspan class="cls-51" x="882.46" y="45.6">t</tspan><tspan x="894.54" y="45.6">em</tspan></tspan></text>
    <rect class="cls-19" x="2.56" y="326" width="1092.19" height="722.22"/>
    <rect class="cls-19" x="45.09" y="361.44" width="1091.48" height="717.26"/>
    <text class="cls-18" transform="translate(181.64 478.33)"><tspan class="cls-54" x="0" y="0">F</tspan><tspan class="cls-45" x="16.94" y="0">r</tspan><tspan x="27.56" y="0">a</tspan><tspan class="cls-64" x="45.93" y="0">n</tspan><tspan x="64.81" y="0">ce</tspan></text>
    <text class="cls-18" transform="translate(521.24 470.54)"><tspan x="0" y="0">Germa</tspan><tspan class="cls-49" x="103.56" y="0">n</tspan><tspan x="122" y="0">y</tspan></text>
    <text class="cls-18" transform="translate(506.24 668.99)"><tspan class="cls-48" x="0" y="0">A</tspan><tspan x="21.81" y="0">ustria</tspan></text>
    <text class="cls-16" transform="translate(662.46 702.72)"><tspan x="0" y="0">I</tspan><tspan class="cls-60" x="5.69" y="0">r</tspan><tspan x="13.37" y="0">ela</tspan><tspan class="cls-62" x="46.39" y="0">n</tspan><tspan x="60.55" y="0">d</tspan></text>
    <text class="cls-16" transform="translate(758.71 702.72)"><tspan class="cls-57" x="0" y="0">P</tspan><tspan x="14.49" y="0">ola</tspan><tspan class="cls-62" x="48.07" y="0">n</tspan><tspan x="62.23" y="0">d</tspan></text>
    <text class="cls-15" transform="translate(1146.79 646.84)"><tspan x="0" y="0">T</tspan><tspan class="cls-61" x="15.29" y="0">h</tspan><tspan x="29.93" y="0">e N</tspan><tspan class="cls-41" x="69.38" y="0">e</tspan><tspan x="83.96" y="0">t</tspan><tspan class="cls-61" x="92.67" y="0">h</tspan><tspan x="107.31" y="0">erla</tspan><tspan class="cls-41" x="150.05" y="0">n</tspan><tspan x="164.66" y="0">ds</tspan></text>
    <text class="cls-15" transform="translate(1146.79 748.74)"><tspan class="cls-52" x="0" y="0">C</tspan><tspan class="cls-55" x="18.24" y="0">z</tspan><tspan x="30.08" y="0">ec</tspan><tspan class="cls-61" x="59.2" y="0">h</tspan><tspan class="cls-74" x="73.83" y="0">o</tspan><tspan x="89.09" y="0">sl</tspan><tspan class="cls-43" x="107.33" y="0">o</tspan><tspan class="cls-44" x="122.07" y="0">v</tspan><tspan x="134.37" y="0">akia</tspan></text>
    <text class="cls-18" transform="translate(501.41 792.31)"><tspan x="0" y="0">No</tspan><tspan class="cls-77" x="42.83" y="0">r</tspan><tspan class="cls-49" x="54.19" y="0">wa</tspan><tspan x="97.88" y="0">y</tspan></text>
    <text class="cls-18" transform="translate(661.73 856.81)"><tspan x="0" y="0">Sc</tspan><tspan class="cls-64" x="39.22" y="0">o</tspan><tspan x="58.82" y="0">tla</tspan><tspan class="cls-64" x="95.05" y="0">n</tspan><tspan x="113.93" y="0">d</tspan></text>
    <text class="cls-18" transform="translate(665.74 946.82)"><tspan class="cls-58" x="0" y="0">P</tspan><tspan x="19.32" y="0">o</tspan><tspan class="cls-75" x="39.12" y="0">r</tspan><tspan x="50.93" y="0">tugal</tspan></text>
    <text class="cls-18" transform="translate(675.51 1019.11)"><tspan class="cls-58" x="0" y="0">R</tspan><tspan x="19.9" y="0">oman</tspan></text>
    <text class="cls-17" transform="translate(817.65 838.17)"><tspan x="0" y="0">Bulgaria</tspan></text>
    <text class="cls-17" transform="translate(813.42 1025.28)"><tspan class="cls-56" x="0" y="0">R</tspan><tspan x="16.17" y="0">omania</tspan></text>
    <text class="cls-15" transform="translate(1151.29 804.69)"><tspan class="cls-70" x="0" y="0">S</tspan><tspan class="cls-47" x="15.77" y="0">w</tspan><tspan x="35.9" y="0">eden</tspan></text>
    <text class="cls-15" transform="translate(1153.03 847.56)"><tspan x="0" y="0">Uk</tspan><tspan class="cls-46" x="30.87" y="0">r</tspan><tspan x="39.08" y="0">ai</tspan><tspan class="cls-41" x="58.4" y="0">n</tspan><tspan class="cls-38" x="73.01" y="0">e</tspan></text>
    <text class="cls-13" transform="translate(820.86 898.7)"><tspan x="0" y="0">Finla</tspan><tspan class="cls-65" x="58.61" y="0">n</tspan><tspan x="74.74" y="0">d</tspan></text>
    <text class="cls-14" transform="translate(814.88 961.21)"><tspan x="0" y="0">Lithuania</tspan></text>
    <text class="cls-12" transform="translate(935.54 940.94)"><tspan x="0" y="0">Es</tspan><tspan class="cls-50" x="21.7" y="0">t</tspan><tspan x="28.24" y="0">onia</tspan></text>
    <text class="cls-12" transform="translate(942.45 1033.78)"><tspan class="cls-67" x="0" y="0">L</tspan><tspan x="9.93" y="0">atvia</tspan></text>
    <text class="cls-12" transform="translate(1028.72 1033.78)"><tspan class="cls-53" x="0" y="0">W</tspan><tspan x="18.83" y="0">al</tspan><tspan class="cls-73" x="33.91" y="0">e</tspan><tspan x="45.38" y="0">s</tspan></text>
    <text class="cls-9" transform="translate(938.79 976.28)"><tspan class="cls-24"><tspan x="0" y="0">Flemish</tspan></tspan><tspan class="cls-22" x="-6.59" y="21.26">(</tspan><tspan class="cls-24" x="-1.56" y="21.26">Belgium</tspan><tspan class="cls-22" x="61.88" y="21.26">)</tspan></text>
    <text class="cls-18" transform="translate(497.84 903.59)"><tspan x="0" y="0">Belgium</tspan></text>
    <text class="cls-18" transform="translate(495 1009.9)"><tspan x="0" y="0">Hunga</tspan><tspan class="cls-77" x="99.34" y="0">r</tspan><tspan x="110.7" y="0">y</tspan></text>
    <text class="cls-18" transform="translate(786.54 470.54)"><tspan x="0" y="0">G</tspan><tspan class="cls-59" x="25.41" y="0">r</tspan><tspan x="35.65" y="0">eece</tspan></text>
    <text class="cls-18" transform="translate(983.31 470.54)"><tspan x="0" y="0">Spain</tspan></text>
    <text class="cls-18" transform="translate(202.7 755.46)"><tspan x="0" y="0">I</tspan><tspan class="cls-72" x="7.59" y="0">t</tspan><tspan x="18.57" y="0">aly</tspan></text>
    <text class="cls-18" transform="translate(174.88 975.88)"><tspan x="0" y="0">Engla</tspan><tspan class="cls-64" x="83.28" y="0">n</tspan><tspan x="102.16" y="0">d</tspan></text>
    <rect class="cls-21" x="1.5" y="326" width="1093.61" height="722.93"/>
    <line class="cls-21" x1="464.32" y1="326.35" x2="464.32" y2="1049.28"/>
    <line class="cls-21" x1="722.3" y1="326.71" x2="722.3" y2="594.97"/>
    <line class="cls-21" x1="748.53" y1="593.91" x2="748.53" y2="796.97"/>
    <line class="cls-21" x1="845.63" y1="593.91" x2="845.63" y2="796.97"/>
    <line class="cls-21" x1="940.6" y1="593.91" x2="940.6" y2="796.97"/>
    <line class="cls-21" x1="1019.27" y1="593.91" x2="1019.27" y2="796.97"/>
    <line class="cls-21" x1="805.23" y1="797.32" x2="805.23" y2="1048.57"/>
    <line class="cls-21" x1="927.84" y1="797.32" x2="927.84" y2="1048.57"/>
    <line class="cls-21" x1="995.17" y1="797.32" x2="995.17" y2="911.79"/>
    <line class="cls-21" x1="1062.5" y1="797.32" x2="1062.5" y2="911.79"/>
    <line class="cls-21" x1="1012.18" y1="911.79" x2="1012.18" y2="1048.57"/>
    <line class="cls-21" x1="1054.71" y1="912.14" x2="1054.71" y2="1004.63"/>
    <line class="cls-21" x1="652.14" y1="594.97" x2="652.14" y2="1049.28"/>
    <line class="cls-21" x1="952.65" y1="326.71" x2="952.65" y2="594.97"/>
    <line class="cls-21" x1="1.5" y1="612.69" x2="464.32" y2="612.69"/>
    <line class="cls-21" x1="1.85" y1="882.73" x2="464.67" y2="882.73"/>
    <line class="cls-21" x1="464.32" y1="594.97" x2="1095.11" y2="594.97"/>
    <line class="cls-21" x1="652.14" y1="796.97" x2="1095.46" y2="796.97"/>
    <line class="cls-21" x1="464.32" y1="719.71" x2="652.14" y2="719.71"/>
    <line class="cls-21" x1="464.67" y1="843.74" x2="652.49" y2="843.74"/>
    <line class="cls-21" x1="464.67" y1="947.22" x2="652.49" y2="947.22"/>
    <line class="cls-21" x1="652.14" y1="897.61" x2="805.23" y2="897.61"/>
    <line class="cls-21" x1="806.29" y1="860.05" x2="927.84" y2="860.05"/>
    <line class="cls-21" x1="806.29" y1="923.13" x2="927.84" y2="923.13"/>
    <line class="cls-21" x1="806.29" y1="986.2" x2="927.84" y2="986.2"/>
    <line class="cls-21" x1="928.2" y1="911.79" x2="1095.11" y2="911.79"/>
    <line class="cls-21" x1="928.2" y1="958.56" x2="1012.18" y2="958.56"/>
    <line class="cls-21" x1="928.2" y1="1005.34" x2="1095.82" y2="1005.34"/>
    <line class="cls-21" x1="652.49" y1="973.45" x2="805.58" y2="973.45"/>
    <line class="cls-20" x1="1054.35" y1="758.06" x2="1245.72" y2="758.06"/>
    <rect class="cls-11" x="1146.53" y="757.01" width="179.86" height="2.19"/>
    <text class="cls-15" transform="translate(1146.79 697.09)"><tspan x="0" y="0">Icela</tspan><tspan class="cls-61" x="54.3" y="0">n</tspan><tspan x="68.91" y="0">d</tspan></text>
    <line class="cls-20" x1="987.99" y1="705.41" x2="1233.11" y2="704.91"/>
    <line class="cls-20" x1="889.29" y1="658.26" x2="1344.97" y2="658.26"/>
    <line class="cls-20" x1="1034.6" y1="857.66" x2="1270.19" y2="857.66"/>
    <rect class="cls-11" x="1146.53" y="856.56" width="124.4" height="2.44"/>
    <line class="cls-20" x1="978.67" y1="814.89" x2="1270.19" y2="814.89"/>
    <rect class="cls-11" x="1146.53" y="813.79" width="124.4" height="2.44"/>
    <rect class="cls-11" x="1146.53" y="704.12" width="87.11" height="2.44"/>
    <rect class="cls-11" x="1146.53" y="657.21" width="197.88" height="3.29"/>
    <text class="cls-15" transform="translate(1147.42 940.27)"><tspan class="cls-70" x="0" y="0">S</tspan><tspan class="cls-38" x="15.77" y="0">wi</tspan><tspan class="cls-76" x="41.45" y="0">t</tspan><tspan class="cls-55" x="50.27" y="0">z</tspan><tspan x="62.12" y="0">erla</tspan><tspan class="cls-61" x="104.86" y="0">n</tspan><tspan x="119.47" y="0">d</tspan></text>
    <line class="cls-20" x1="1078.22" y1="948.32" x2="1151.95" y2="948.32"/>
    <rect class="cls-11" x="1146.53" y="947.22" width="125.4" height="3.26"/>
    <text class="cls-8" transform="translate(1146.79 888.44)"><tspan class="cls-24" x="0" y="0">Al</tspan><tspan class="cls-32" x="22.42" y="0">-</tspan><tspan class="cls-24" x="33.14" y="0">A</tspan><tspan class="cls-30" x="50.46" y="0">n</tspan><tspan class="cls-24" x="65.06" y="0">dalus </tspan><tspan class="cls-22" x="134.6" y="0">(</tspan><tspan class="cls-24" x="142.08" y="0">Spain</tspan><tspan class="cls-22" x="207.83" y="0">)</tspan><tspan class="cls-24" x="215.3" y="0"> </tspan></text>
    <line class="cls-20" x1="1076.03" y1="896.53" x2="1356.5" y2="896.5"/>
    <rect class="cls-11" x="1146.53" y="895.43" width="212" height="2.57"/>
    <text class="cls-15" transform="translate(1151.03 986.55)"><tspan x="0" y="0">Mal</tspan><tspan class="cls-71" x="41.61" y="0">t</tspan><tspan x="50.11" y="0">a</tspan></text>
    <line class="cls-20" x1="1039.84" y1="992.52" x2="1244.07" y2="992.52"/>
    <rect class="cls-11" x="1146.53" y="991.43" width="102.81" height="2.84"/>
    <rect x="1" y="263" width="506" height="50"/>
    <rect x="4" width="506" height="109"/>
    <rect x="4" y="1066" width="506" height="109"/>
    <circle class="cls-11" cx="892.03" cy="657.75" r="4.94"/>
    <circle class="cls-11" cx="987.44" cy="704.91" r="4.94"/>
    <circle class="cls-11" cx="1054.34" cy="757.56" r="4.94"/>
    <circle class="cls-11" cx="978.67" cy="814.58" r="4.94"/>
    <circle class="cls-11" cx="1034.6" cy="857.36" r="4.94"/>
    <circle class="cls-11" cx="1076.28" cy="896.84" r="4.94"/>
    <circle class="cls-11" cx="1078.47" cy="947.74" r="4.94"/>
    <circle class="cls-11" cx="1040.08" cy="989.74" r="4.94"/>
  </g>
</svg>