<?xml version="1.0" encoding="UTF-8"?>
<svg id="Layer_2" xmlns="http://www.w3.org/2000/svg" viewBox="0 0 1417 1208">
  <defs>
    <style>
      .cls-1 {
        letter-spacing: 0em;
      }

      .cls-1, .cls-2, .cls-3, .cls-4, .cls-5, .cls-6, .cls-7, .cls-8 {
        font-family: AeonikTRIAL-Bold, 'Aeonik TRIAL';
        font-weight: 700;
      }

      .cls-2 {
        letter-spacing: -.02em;
      }

      .cls-3, .cls-9 {
        letter-spacing: -.02em;
      }

      .cls-10 {
        font-size: 48px;
      }

      .cls-10, .cls-11, .cls-12, .cls-13, .cls-14, .cls-15, .cls-16 {
        fill: #fff;
      }

      .cls-11 {
        font-size: 38px;
      }

      .cls-17, .cls-18 {
        fill: #29dae4;
      }

      .cls-17, .cls-19 {
        opacity: .4;
      }

      .cls-18 {
        opacity: .13;
      }

      .cls-19 {
        fill: #cae103;
      }

      .cls-20 {
        font-family: MyriadPro-Regular, 'Myriad Pro';
      }

      .cls-21 {
        letter-spacing: 0em;
      }

      .cls-22, .cls-23, .cls-24, .cls-25, .cls-26, .cls-27, .cls-28, .cls-29, .cls-30, .cls-31, .cls-12, .cls-32, .cls-33, .cls-34, .cls-13, .cls-35, .cls-14, .cls-15, .cls-16 {
        font-family: AeonikTRIAL-Regular, 'Aeonik TRIAL';
      }

      .cls-23 {
        letter-spacing: -.01em;
      }

      .cls-24, .cls-36 {
        letter-spacing: -.01em;
      }

      .cls-25 {
        letter-spacing: -.02em;
      }

      .cls-26 {
        letter-spacing: 0em;
      }

      .cls-27 {
        letter-spacing: 0em;
      }

      .cls-37 {
        fill: none;
        stroke: #29dae4;
        stroke-miterlimit: 10;
        stroke-width: 3px;
      }

      .cls-28, .cls-38 {
        letter-spacing: -.03em;
      }

      .cls-29, .cls-39 {
        letter-spacing: 0em;
      }

      .cls-30, .cls-40 {
        letter-spacing: 0em;
      }

      .cls-31 {
        letter-spacing: 0em;
      }

      .cls-12 {
        font-size: 50.17px;
      }

      .cls-32, .cls-41, .cls-7 {
        letter-spacing: 0em;
      }

      .cls-33 {
        letter-spacing: 0em;
      }

      .cls-34 {
        letter-spacing: 0em;
      }

      .cls-42 {
        letter-spacing: -.02em;
      }

      .cls-43 {
        letter-spacing: -.02em;
      }

      .cls-44 {
        letter-spacing: -.02em;
      }

      .cls-45 {
        letter-spacing: -.02em;
      }

      .cls-46 {
        letter-spacing: -.02em;
      }

      .cls-47 {
        letter-spacing: -.01em;
      }

      .cls-48 {
        letter-spacing: -.05em;
      }

      .cls-13 {
        font-size: 14.63px;
      }

      .cls-49 {
        letter-spacing: 0em;
      }

      .cls-35 {
        letter-spacing: 0em;
      }

      .cls-14 {
        font-size: 19.51px;
      }

      .cls-15 {
        font-size: 29.27px;
      }

      .cls-16 {
        font-size: 32.75px;
      }

      .cls-50 {
        letter-spacing: 0em;
      }

      .cls-51 {
        letter-spacing: 0em;
      }

      .cls-5 {
        letter-spacing: .02em;
      }

      .cls-6 {
        letter-spacing: 0em;
      }

      .cls-8 {
        letter-spacing: 0em;
      }

      .cls-52 {
        letter-spacing: 0em;
      }
    </style>
  </defs>
  <g id="Layer_1-2" data-name="Layer_1">
    <rect class="cls-19" x="543" y="261" width="116" height="42"/>
    <rect class="cls-17" x="1" y="212" width="429" height="45"/>
    <rect class="cls-17" y="264" width="291" height="42"/>
    <rect class="cls-18" x="45.36" y="382.99" width="1075.25" height="716.37"/>
    <rect class="cls-18" x="12.36" y="348.97" width="1075.25" height="716.37"/>
    <rect class="cls-37" x="12.7" y="350.92" width="1073.51" height="710.45"/>
    <line class="cls-37" x1="911.99" y1="350.92" x2="911.99" y2="1061.02"/>
    <line class="cls-37" x1="911.99" y1="611.55" x2="1086.21" y2="611.55"/>
    <line class="cls-37" x1="911.99" y1="740.47" x2="1086.21" y2="740.47"/>
    <line class="cls-37" x1="1086.21" y1="870.78" x2="911.99" y2="870.78"/>
    <line class="cls-37" x1="999.1" y1="740.47" x2="999.1" y2="870.78"/>
    <line class="cls-37" x1="911.99" y1="933.5" x2="1086.21" y2="933.5"/>
    <line class="cls-37" x1="999.1" y1="1061.02" x2="999.1" y2="933.5"/>
    <text class="cls-12" transform="translate(318.76 730.24)"><tspan x="0" y="0">Uni</tspan><tspan class="cls-47" x="71.09" y="0">t</tspan><tspan x="87.05" y="0">ed S</tspan><tspan class="cls-50" x="188.65" y="0">t</tspan><tspan x="204.86" y="0">a</tspan><tspan class="cls-47" x="231.95" y="0">t</tspan><tspan class="cls-51" x="247.91" y="0">e</tspan><tspan x="275.91" y="0">s</tspan></text>
    <text class="cls-16" transform="translate(946.77 490.87)"><tspan x="0" y="0">M</tspan><tspan class="cls-44" x="27.74" y="0">e</tspan><tspan x="45.39" y="0">xico</tspan></text>
    <text class="cls-16" transform="translate(942.25 686.68)"><tspan x="0" y="0">Can</tspan><tspan class="cls-49" x="59.18" y="0">a</tspan><tspan x="76.67" y="0">da</tspan></text>
    <text class="cls-15" transform="translate(918.87 812.47)"><tspan x="0" y="0">Cuba</tspan></text>
    <text class="cls-15" transform="translate(1012.39 812.47)"><tspan x="0" y="0">Haiti</tspan></text>
    <text class="cls-15" transform="translate(951.02 910.03)"><tspan x="0" y="0">Jamaica</tspan></text>
    <text class="cls-14" transform="translate(925.23 997.27)"><tspan x="0" y="0">M</tspan><tspan class="cls-46" x="16.53" y="0">a</tspan><tspan class="cls-42" x="26.69" y="0">y</tspan><tspan x="35.84" y="0">an</tspan></text>
    <text class="cls-13" transform="translate(1008.1 995.25)"><tspan x="0" y="0">Nica</tspan><tspan class="cls-43" x="28.64" y="0">r</tspan><tspan x="33.2" y="0">agua</tspan></text>
    <text class="cls-10" transform="translate(6.5 155.08)"><tspan class="cls-4" x="0" y="0">No</tspan><tspan class="cls-5" x="62.4" y="0">r</tspan><tspan class="cls-4" x="81.5" y="0">th A</tspan><tspan class="cls-8" x="172.7" y="0">m</tspan><tspan class="cls-4" x="215.52" y="0">e</tspan><tspan class="cls-2" x="243.4" y="0">r</tspan><tspan class="cls-4" x="260.64" y="0">cia </tspan><tspan class="cls-20" x="338.25" y="0">–</tspan><tspan class="cls-4" x="362.25" y="0" xml:space="preserve"> A Rising S</tspan><tspan class="cls-6" x="598.17" y="0">t</tspan><tspan class="cls-4" x="615.5" y="0">ar</tspan></text>
    <text class="cls-11" transform="translate(6.5 205.6)"><tspan class="cls-22"><tspan x="0" y="0">D</tspan><tspan class="cls-41" x="26.07" y="0">e</tspan><tspan x="47.27" y="0">spi</tspan><tspan class="cls-36" x="96.25" y="0">t</tspan><tspan x="108.34" y="0">e </tspan><tspan class="cls-40" x="139.57" y="0">no</tspan><tspan class="cls-21" x="182.55" y="0">t le</tspan><tspan class="cls-40" x="233.73" y="0">a</tspan><tspan x="254.03" y="0">ding t</tspan><tspan class="cls-40" x="350.54" y="0">h</tspan><tspan x="371.67" y="0">e conti</tspan><tspan class="cls-40" x="487.04" y="0">n</tspan><tspan x="508.13" y="0">ent </tspan><tspan class="cls-9" x="573.26" y="0">r</tspan><tspan class="cls-39" x="585.11" y="0">a</tspan><tspan x="605.4" y="0">ce </tspan><tspan class="cls-45" x="657.39" y="0">f</tspan><tspan x="668.79" y="0">or cultu</tspan><tspan class="cls-9" x="795.97" y="0">r</tspan><tspan x="807.83" y="0">al </tspan><tspan class="cls-38" x="845.67" y="0">r</tspan><tspan x="857.11" y="0">ecognition on Me</tspan><tspan class="cls-38" x="1152.78" y="0">r</tspan><tspan x="1164.22" y="0">cu</tspan><tspan class="cls-52" x="1205.9" y="0">r</tspan><tspan class="cls-48" x="1218.6" y="0">y</tspan><tspan x="1235.51" y="0">, t</tspan><tspan class="cls-39" x="1265.87" y="0">h</tspan><tspan x="1287" y="0">e </tspan></tspan><tspan class="cls-22" x="0" y="45.6">Uni</tspan><tspan class="cls-23" x="53.84" y="45.6">t</tspan><tspan class="cls-22" x="65.93" y="45.6">ed S</tspan><tspan class="cls-27" x="142.88" y="45.6">t</tspan><tspan class="cls-22" x="155.15" y="45.6">a</tspan><tspan class="cls-24" x="175.67" y="45.6">t</tspan><tspan class="cls-32" x="187.76" y="45.6">e</tspan><tspan class="cls-22" x="208.96" y="45.6">s domina</tspan><tspan class="cls-23" x="364.79" y="45.6">t</tspan><tspan class="cls-33" x="376.88" y="45.6">e</tspan><tspan class="cls-22" x="398.08" y="45.6">s at t</tspan><tspan class="cls-30" x="482.63" y="45.6">h</tspan><tspan class="cls-22" x="503.76" y="45.6">e count</tspan><tspan class="cls-35" x="632.69" y="45.6">r</tspan><tspan class="cls-22" x="645.38" y="45.6">y l</tspan><tspan class="cls-25" x="681.44" y="45.6">ev</tspan><tspan class="cls-22" x="719.71" y="45.6">el with a w</tspan><tspan class="cls-29" x="899.48" y="45.6">h</tspan><tspan class="cls-22" x="920.61" y="45.6">opping 56 </tspan><tspan class="cls-29" x="1103.35" y="45.6">h</tspan><tspan class="cls-22" x="1124.48" y="45.6">o</tspan><tspan class="cls-31" x="1146.59" y="45.6">n</tspan><tspan class="cls-22" x="1167.68" y="45.6">ou</tspan><tspan class="cls-28" x="1210.73" y="45.6">r</tspan><tspan class="cls-22" x="1222.17" y="45.6">e</tspan><tspan class="cls-34" x="1243.45" y="45.6">e</tspan><tspan class="cls-22" x="1264.66" y="45.6">s</tspan><tspan class="cls-20" x="1283.62" y="45.6">—</tspan><tspan class="cls-3" x="0" y="91.2">f</tspan><tspan class="cls-4" x="13" y="91.2">our ti</tspan><tspan class="cls-7" x="104.54" y="91.2">m</tspan><tspan class="cls-1" x="138.43" y="91.2">e</tspan><tspan class="cls-4" x="160.36" y="91.2">s</tspan><tspan class="cls-22" x="180.5" y="91.2"> </tspan><tspan class="cls-30" x="190.45" y="91.2">m</tspan><tspan class="cls-22" x="223.17" y="91.2">o</tspan><tspan class="cls-28" x="245.29" y="91.2">r</tspan><tspan class="cls-22" x="256.72" y="91.2">e than t</tspan><tspan class="cls-30" x="386.26" y="91.2">h</tspan><tspan class="cls-22" x="407.39" y="91.2">e enti</tspan><tspan class="cls-28" x="501.17" y="91.2">r</tspan><tspan class="cls-22" x="512.61" y="91.2">e </tspan><tspan class="cls-26" x="543.85" y="91.2">A</tspan><tspan class="cls-22" x="568.51" y="91.2">frica.</tspan></text>
    <rect x="7" y="300" width="506" height="50"/>
    <rect x="10" width="506" height="109"/>
    <rect x="10" y="1099" width="506" height="109"/>
  </g>
</svg>