<?xml version="1.0" encoding="UTF-8"?>
<svg id="Layer_2" xmlns="http://www.w3.org/2000/svg" viewBox="0 0 1410.5 910">
  <defs>
    <style>
      .cls-1 {
        fill: #f80;
        opacity: .13;
      }

      .cls-2 {
        fill: none;
        stroke: #f80;
        stroke-miterlimit: 10;
        stroke-width: 3px;
      }

      .cls-3 {
        letter-spacing: -.08em;
      }

      .cls-4 {
        letter-spacing: -.02em;
      }

      .cls-5 {
        letter-spacing: -.02em;
      }

      .cls-6 {
        letter-spacing: -.02em;
      }

      .cls-7 {
        letter-spacing: -.02em;
      }

      .cls-8 {
        letter-spacing: -.02em;
      }

      .cls-9 {
        letter-spacing: -.02em;
      }

      .cls-10 {
        letter-spacing: -.02em;
      }

      .cls-11 {
        letter-spacing: -.03em;
      }

      .cls-12 {
        letter-spacing: -.03em;
      }

      .cls-13 {
        letter-spacing: -.03em;
      }

      .cls-14 {
        letter-spacing: 0em;
      }

      .cls-15 {
        letter-spacing: 0em;
      }

      .cls-16 {
        letter-spacing: 0em;
      }

      .cls-17 {
        letter-spacing: 0em;
      }

      .cls-18 {
        font-size: 21.36px;
      }

      .cls-18, .cls-19, .cls-20 {
        font-family: AeonikTRIAL-Regular, 'Aeonik TRIAL';
      }

      .cls-18, .cls-19, .cls-20, .cls-21 {
        fill: #fff;
      }

      .cls-19 {
        font-size: 38px;
      }

      .cls-20 {
        font-size: 37.51px;
      }

      .cls-21 {
        font-family: AeonikTRIAL-Bold, 'Aeonik TRIAL';
        font-size: 48px;
        font-weight: 700;
      }

      .cls-22 {
        letter-spacing: 0em;
      }

      .cls-23 {
        letter-spacing: 0em;
      }
    </style>
  </defs>
  <g id="Layer_1-2" data-name="Layer_1">
    <rect x="3.5" y="801" width="506" height="109"/>
    <text class="cls-21" transform="translate(0 149.6)"><tspan x="0" y="0">Oceania - Small Isla</tspan><tspan class="cls-22" x="441.07" y="0">n</tspan><tspan x="469.29" y="0">ds with Big </tspan><tspan class="cls-3" x="727.81" y="0">T</tspan><tspan x="752.63" y="0">alents</tspan></text>
    <text class="cls-19" transform="translate(0 206.87)"><tspan x="0" y="0">With </tspan><tspan class="cls-4" x="88.04" y="0">f</tspan><tspan x="99.44" y="0">our </tspan><tspan class="cls-17" x="164.99" y="0">h</tspan><tspan x="186.12" y="0">o</tspan><tspan class="cls-15" x="208.24" y="0">n</tspan><tspan x="229.33" y="0">ou</tspan><tspan class="cls-11" x="272.38" y="0">r</tspan><tspan x="283.82" y="0">e</tspan><tspan class="cls-23" x="305.1" y="0">e</tspan><tspan x="326.3" y="0">s f</tspan><tspan class="cls-11" x="367.49" y="0">r</tspan><tspan x="378.93" y="0">om </tspan><tspan class="cls-9" x="443.95" y="0">A</tspan><tspan x="468.3" y="0">ust</tspan><tspan class="cls-5" x="520.78" y="0">r</tspan><tspan x="532.64" y="0">alia a</tspan><tspan class="cls-15" x="618.89" y="0">n</tspan><tspan x="639.98" y="0">d o</tspan><tspan class="cls-17" x="694.7" y="0">n</tspan><tspan x="715.79" y="0">e f</tspan><tspan class="cls-13" x="759.3" y="0">r</tspan><tspan x="770.74" y="0">om N</tspan><tspan class="cls-7" x="861.48" y="0">e</tspan><tspan x="882.12" y="0">w </tspan><tspan class="cls-11" x="921.79" y="0">Z</tspan><tspan x="943.41" y="0">eala</tspan><tspan class="cls-14" x="1013.1" y="0">n</tspan><tspan x="1034.19" y="0">d</tspan></text>
    <rect x=".5" y="215" width="506" height="50"/>
    <rect x="3.5" width="506" height="109"/>
    <rect class="cls-1" x="8.12" y="265.8" width="803.81" height="535.01"/>
    <rect class="cls-1" x="25.84" y="282.99" width="803.81" height="535.01"/>
    <text class="cls-20" transform="translate(272.38 541.29)"><tspan class="cls-10" x="0" y="0">A</tspan><tspan x="24.04" y="0">ust</tspan><tspan class="cls-6" x="75.84" y="0">r</tspan><tspan x="87.54" y="0">alia</tspan></text>
    <text class="cls-18" transform="translate(671.4 529.98)"><tspan x="0" y="0">N</tspan><tspan class="cls-8" x="14.46" y="0">e</tspan><tspan x="26.06" y="0">w </tspan><tspan class="cls-12" x="48.35" y="0">Z</tspan><tspan x="60.51" y="0">eala</tspan><tspan class="cls-16" x="99.68" y="0">n</tspan><tspan x="111.53" y="0">d</tspan></text>
    <rect class="cls-2" x="6.56" y="265.8" width="807.46" height="535.01"/>
    <line class="cls-2" x1="651.75" y1="265.8" x2="651.75" y2="800.81"/>
  </g>
</svg>