<?xml version="1.0" encoding="UTF-8"?>
<svg id="Layer_2" xmlns="http://www.w3.org/2000/svg" viewBox="0 0 1410.5 1194">
  <defs>
    <style>
      .cls-1 {
        letter-spacing: -.02em;
      }

      .cls-1, .cls-2, .cls-3, .cls-4, .cls-5, .cls-6, .cls-7, .cls-8, .cls-9, .cls-10, .cls-11 {
        font-family: AeonikTRIAL-Bold, 'Aeonik TRIAL';
        font-weight: 700;
      }

      .cls-12 {
        font-size: 48px;
      }

      .cls-12, .cls-13, .cls-14, .cls-15, .cls-16 {
        fill: #fff;
      }

      .cls-2 {
        letter-spacing: -.01em;
      }

      .cls-3 {
        letter-spacing: -.01em;
      }

      .cls-4 {
        letter-spacing: -.02em;
      }

      .cls-17 {
        fill: none;
        stroke: #32e1b6;
        stroke-miterlimit: 10;
        stroke-width: 3px;
      }

      .cls-18 {
        font-family: MyriadPro-Regular, 'Myriad Pro';
      }

      .cls-19 {
        letter-spacing: 0em;
      }

      .cls-20 {
        letter-spacing: 0em;
      }

      .cls-21 {
        opacity: .4;
      }

      .cls-21, .cls-22 {
        fill: #32e1b6;
      }

      .cls-22 {
        opacity: .13;
      }

      .cls-13 {
        font-size: 50.12px;
      }

      .cls-13, .cls-14, .cls-15, .cls-16 {
        font-family: AeonikTRIAL-Regular, 'Aeonik TRIAL';
      }

      .cls-14 {
        font-size: 40.37px;
      }

      .cls-15 {
        font-size: 43.16px;
      }

      .cls-23 {
        letter-spacing: -.02em;
      }

      .cls-24 {
        letter-spacing: -.02em;
      }

      .cls-25 {
        letter-spacing: -.02em;
      }

      .cls-26 {
        letter-spacing: -.02em;
      }

      .cls-27 {
        letter-spacing: -.05em;
      }

      .cls-28 {
        letter-spacing: -.03em;
      }

      .cls-29 {
        letter-spacing: -.03em;
      }

      .cls-30 {
        letter-spacing: -.03em;
      }

      .cls-31 {
        letter-spacing: -.03em;
      }

      .cls-32 {
        letter-spacing: 0em;
      }

      .cls-33 {
        letter-spacing: 0em;
      }

      .cls-34 {
        letter-spacing: 0em;
      }

      .cls-35 {
        letter-spacing: 0em;
      }

      .cls-16 {
        font-size: 38px;
      }

      .cls-36 {
        letter-spacing: 0em;
      }

      .cls-6 {
        letter-spacing: 0em;
      }

      .cls-7 {
        letter-spacing: 0em;
      }

      .cls-8 {
        letter-spacing: 0em;
      }

      .cls-9 {
        letter-spacing: 0em;
      }

      .cls-37 {
        letter-spacing: 0em;
      }

      .cls-38 {
        letter-spacing: 0em;
      }

      .cls-39 {
        letter-spacing: 0em;
      }

      .cls-10 {
        letter-spacing: 0em;
      }

      .cls-11 {
        letter-spacing: 0em;
      }

      .cls-40 {
        letter-spacing: 0em;
      }
    </style>
  </defs>
  <g id="Layer_1-2" data-name="Layer_1">
    <rect class="cls-21" x="877.5" y="109" width="406" height="56"/>
    <rect x="3.5" y="1085" width="506" height="109"/>
    <text class="cls-12" transform="translate(0 152.08)"><tspan class="cls-5" x="0" y="0">Imprints </tspan><tspan class="cls-11" x="197.85" y="0">o</tspan><tspan class="cls-5" x="226.56" y="0">f So</tspan><tspan class="cls-9" x="314.54" y="0">u</tspan><tspan class="cls-5" x="342.67" y="0">th A</tspan><tspan class="cls-10" x="433.87" y="0">m</tspan><tspan class="cls-5" x="476.68" y="0">erica on Me</tspan><tspan class="cls-1" x="739.96" y="0">r</tspan><tspan class="cls-5" x="757.19" y="0">cu</tspan><tspan class="cls-7" x="812.44" y="0">r</tspan><tspan class="cls-5" x="830.87" y="0">y</tspan><tspan class="cls-18" x="857.08" y="0">: </tspan><tspan class="cls-5" x="877.19" y="0">B</tspan><tspan class="cls-3" x="907.76" y="0">r</tspan><tspan class="cls-6" x="925.19" y="0">a</tspan><tspan class="cls-5" x="952.5" y="0">zil a t</tspan><tspan class="cls-2" x="1067.79" y="0">r</tspan><tspan class="cls-5" x="1085.22" y="0">ailbl</tspan><tspan class="cls-8" x="1175.94" y="0">a</tspan><tspan class="cls-4" x="1203.25" y="0">z</tspan><tspan class="cls-5" x="1226.48" y="0">er </tspan></text>
    <text class="cls-16" transform="translate(0 208.88)"><tspan x="0" y="0">With only o</tspan><tspan class="cls-32" x="189.65" y="0">n</tspan><tspan x="210.74" y="0">e </tspan><tspan class="cls-34" x="241.98" y="0">h</tspan><tspan x="263.11" y="0">o</tspan><tspan class="cls-32" x="285.22" y="0">n</tspan><tspan x="306.31" y="0">ou</tspan><tspan class="cls-29" x="349.36" y="0">r</tspan><tspan x="360.8" y="0">ee per count</tspan><tspan class="cls-40" x="577.44" y="0">r</tspan><tspan x="590.13" y="0">y </tspan><tspan class="cls-32" x="618.82" y="0">a</tspan><tspan x="639.11" y="0">c</tspan><tspan class="cls-29" x="659.86" y="0">r</tspan><tspan class="cls-37" x="671.29" y="0">o</tspan><tspan class="cls-35" x="693.33" y="0">s</tspan><tspan x="711.92" y="0">s So</tspan><tspan class="cls-19" x="786.01" y="0">u</tspan><tspan x="807.03" y="0">th A</tspan><tspan class="cls-34" x="875.92" y="0">m</tspan><tspan x="908.64" y="0">erica, </tspan><tspan x="0" y="45.6">B</tspan><tspan class="cls-25" x="23.48" y="45.6">r</tspan><tspan class="cls-39" x="35.34" y="45.6">a</tspan><tspan x="56.05" y="45.6">zil s</tspan><tspan class="cls-36" x="117.8" y="45.6">t</tspan><tspan x="130.07" y="45.6">a</tspan><tspan class="cls-32" x="150.59" y="45.6">n</tspan><tspan x="171.68" y="45.6">ds o</tspan><tspan class="cls-20" x="245.36" y="45.6">u</tspan><tspan x="266.38" y="45.6">t with fi</tspan><tspan class="cls-23" x="389.53" y="45.6">v</tspan><tspan x="407.35" y="45.6">e </tspan><tspan class="cls-32" x="438.59" y="45.6">h</tspan><tspan x="459.72" y="45.6">o</tspan><tspan class="cls-32" x="481.83" y="45.6">n</tspan><tspan x="502.92" y="45.6">ou</tspan><tspan class="cls-29" x="545.97" y="45.6">r</tspan><tspan x="557.41" y="45.6">e</tspan><tspan class="cls-37" x="578.69" y="45.6">e</tspan><tspan class="cls-36" x="599.9" y="45.6">s</tspan><tspan x="618.55" y="45.6">.</tspan></text>
    <rect x=".5" y="262" width="506" height="50"/>
    <rect x="3.5" width="506" height="109"/>
    <g>
      <g>
        <rect class="cls-22" x="6.35" y="324" width="1074.08" height="708.63"/>
        <rect class="cls-22" x="39.76" y="364.37" width="1074.08" height="708.63"/>
        <line class="cls-17" x1="918.58" y1="536.14" x2="586.72" y2="536.14"/>
        <text class="cls-15" transform="translate(956.25 551.46)"><tspan class="cls-28" x="0" y="0">P</tspan><tspan x="24.51" y="0">eru</tspan></text>
        <rect class="cls-17" x="6" y="324.7" width="1074.43" height="706.54"/>
        <line class="cls-17" x1="918.58" y1="325.39" x2="918.58" y2="746.88"/>
        <line class="cls-17" x1="833.66" y1="747.23" x2="833.66" y2="1031.58"/>
        <line class="cls-17" x1="587.94" y1="325.39" x2="587.94" y2="1031.58"/>
        <line class="cls-17" x1="1080.08" y1="747.05" x2="586.72" y2="747.05"/>
        <text class="cls-13" transform="translate(252.38 697.64)"><tspan x="0" y="0">B</tspan><tspan class="cls-24" x="30.97" y="0">r</tspan><tspan class="cls-38" x="46.61" y="0">a</tspan><tspan x="73.92" y="0">zil</tspan></text>
        <text class="cls-15" transform="translate(703.1 646.13)"><tspan x="0" y="0">Chile</tspan></text>
        <text class="cls-14" transform="translate(635.6 901.04)"><tspan x="0" y="0">Urugu</tspan><tspan class="cls-26" x="108.6" y="0">a</tspan><tspan x="129.64" y="0">y</tspan></text>
        <text class="cls-14" transform="translate(872.43 901.04)"><tspan class="cls-27" x="0" y="0">V</tspan><tspan x="23.13" y="0">e</tspan><tspan class="cls-33" x="45.74" y="0">n</tspan><tspan class="cls-31" x="68.15" y="0">e</tspan><tspan x="89.63" y="0">zuela</tspan></text>
      </g>
      <text class="cls-15" transform="translate(658.09 436.61)"><tspan x="0" y="0">A</tspan><tspan class="cls-30" x="28.4" y="0">r</tspan><tspan x="41.39" y="0">gentina</tspan></text>
    </g>
  </g>
</svg>